<svg width="100" height="101" viewBox="0 0 100 101" fill="none" xmlns="http://www.w3.org/2000/svg">
<g clip-path="url(#clip0)">
<path d="M0 50.5V100.5H50H100V50.5V0.5L88.5411 0.553047L77.0822 0.632622L74.9072 4.34615C73.7135 6.3886 72.7056 8.13926 72.7056 8.24535C72.679 8.37798 77.0292 8.45756 82.3607 8.45756H92.0424V50.5V92.5424H50H7.95756V50.5V8.45756H25.1459H42.3077L44.6154 4.47878L46.9231 0.5H23.4483H0V50.5Z" fill="white"/>
<path d="M33.9522 22.6751C32.2811 22.8873 28.7798 23.6034 28.5145 23.8156C28.3819 23.9217 27.4801 24.2931 26.5252 24.6379C25.5702 24.9562 24.748 25.3276 24.6684 25.4337C24.5888 25.5398 24.1379 25.8316 23.687 26.0703C23.2095 26.309 22.8116 26.6008 22.8116 26.7069C22.8116 26.813 22.3342 27.1843 21.7506 27.5557C21.1671 27.927 20.6896 28.2719 20.6896 28.3514C20.6896 28.431 20.3183 28.9085 19.8939 29.4125C19.4429 29.9164 19.0185 30.553 18.9389 30.7918C18.8594 31.057 18.6737 31.2692 18.5411 31.2692C18.3819 31.2692 18.3554 31.3753 18.435 31.5345C18.5145 31.6671 18.488 31.7997 18.3289 31.7997C18.1962 31.7997 17.8779 32.4894 17.6657 33.3117C17.427 34.1605 17.0822 35.0888 16.923 35.3806C16.5252 36.0703 16.5517 42.2241 16.9496 42.3568C17.1087 42.4098 17.2413 42.6751 17.2413 42.9668C17.2413 43.7095 18.0371 45.6459 18.6206 46.2825C18.8859 46.5743 19.0981 46.9191 19.0981 47.0782C19.0981 47.2109 19.6021 47.7414 20.1856 48.2453C20.7957 48.7493 21.5649 49.439 21.9098 49.7308C22.2811 50.0491 22.9177 50.4469 23.3421 50.6326C23.7931 50.8183 24.1379 51.057 24.1379 51.1631C24.1379 51.2957 24.9336 51.6406 25.9151 51.9854C26.923 52.3037 27.8514 52.6485 27.984 52.7546C28.1432 52.8607 29.1511 53.1525 30.2387 53.4178C31.3262 53.683 32.2811 53.9748 32.3607 54.0809C32.4403 54.187 33.5809 54.4788 34.8806 54.7175C36.2069 54.9827 37.4005 55.2745 37.5331 55.4072C37.6923 55.5133 38.992 55.8581 40.4509 56.2029C41.9098 56.5212 43.1565 56.866 43.236 56.9721C43.3156 57.0782 43.8726 57.317 44.5092 57.5026C45.1458 57.6618 45.7294 58.0066 45.809 58.2188C45.8885 58.431 46.0742 58.5902 46.2599 58.5902C46.7904 58.6167 48.0371 59.8899 48.4084 60.8448C48.8859 61.9589 48.9124 64.1339 48.488 65.1419C48.0636 66.0703 46.3395 67.7944 45.5437 68.0331C45.2254 68.1392 44.8806 68.3249 44.801 68.431C44.4827 68.9615 40.8488 69.4655 37.374 69.4655C33.9257 69.4655 29.4164 68.9085 28.8063 68.431C28.6472 68.2984 27.7984 68.0066 26.923 67.7414C26.0477 67.5026 25.2785 67.2109 25.1989 67.1048C25.1193 66.9987 24.5092 66.7069 23.7931 66.4416C23.1034 66.1764 22.3872 65.8316 22.2015 65.6724C22.0159 65.4867 21.4588 65.1154 20.9549 64.8501C20.4509 64.5583 19.9204 64.187 19.8143 63.9748C19.496 63.4443 18.8328 63.5504 18.8328 64.1605C18.8328 64.4522 18.7002 64.691 18.5411 64.691C18.4084 64.691 18.3554 64.7971 18.435 64.9562C18.5145 65.0888 18.488 65.2215 18.3819 65.2215C18.2493 65.2215 17.984 65.752 17.7984 66.4416C17.6127 67.1048 17.2944 67.7679 17.1352 67.9536C16.9761 68.1392 16.6843 68.6963 16.5252 69.2003C16.366 69.7042 16.0742 70.5 15.8886 70.9774C15.5702 71.7467 15.5968 71.8793 16.1273 72.4629C16.4721 72.8342 17.2148 73.3117 17.7984 73.5769C18.3554 73.8422 18.8328 74.1339 18.8328 74.2666C18.8328 74.3727 19.4429 74.6644 20.1591 74.9297C20.9018 75.195 21.4854 75.4867 21.4854 75.5928C21.4854 75.6724 22.5198 76.0438 23.8196 76.3621C25.0928 76.7069 26.1803 77.0517 26.2599 77.1578C26.7639 77.7679 35.1724 78.5902 39.1246 78.378C42.3342 78.2188 46.8169 77.5822 47.3209 77.1843C47.4801 77.0782 48.3819 76.7069 49.3368 76.3621C50.2917 76.0438 51.114 75.6724 51.1936 75.5663C51.2732 75.4602 51.6976 75.195 52.1485 74.9562C53.8992 74.0544 56.6578 71.3488 57.3209 69.9164C57.5066 69.5186 57.7453 69.2003 57.8514 69.2003C57.9575 69.2003 58.2493 68.5106 58.4615 67.6883C58.7002 66.8395 59.0185 65.9377 59.1511 65.6989C59.496 65.1154 59.496 59.2798 59.1777 58.6432C59.045 58.4045 58.7267 57.5557 58.488 56.7865C58.2758 56.0172 57.8779 55.1419 57.6127 54.8766C56.0742 53.0729 53.6339 50.8713 52.7586 50.4735C52.175 50.2347 51.7241 49.9164 51.7241 49.8103C51.7241 49.7042 50.8488 49.3329 49.8143 48.9881C48.7533 48.6698 47.8249 48.3249 47.7453 48.2188C47.6657 48.1392 46.7108 47.8475 45.6233 47.5822C44.5358 47.317 43.5278 47.0252 43.3687 46.9191C43.236 46.813 42.0424 46.5212 40.7161 46.2825C39.4164 46.0172 38.2228 45.7255 38.0636 45.5928C37.931 45.4867 36.8435 45.195 35.6763 44.9297C34.5092 44.691 33.0504 44.24 32.4403 43.9748C31.8302 43.7095 31.2201 43.4708 31.061 43.4708C30.2917 43.4708 27.6923 40.7652 27.4801 39.7573C26.313 33.7891 31.6976 30.6061 41.4058 31.5345C44.4031 31.8262 46.9496 32.3037 46.9496 32.5955C46.9496 32.7016 47.6127 32.9138 48.4084 33.0995C49.2042 33.2851 50.0265 33.5769 50.2122 33.7361C50.557 34.0809 53.2891 35.248 53.74 35.248C54.0053 35.248 54.801 33.683 55.5437 31.6671C55.7559 31.0835 56.1803 30.1021 56.4721 29.492C57.374 27.6883 57.2413 27.2109 55.6498 26.3621C54.8806 25.9377 54.1909 25.5398 54.1114 25.4602C54.0318 25.3541 53.2626 25.0623 52.3872 24.7971C51.5119 24.5318 50.4509 24.1605 50 23.9483C48.4084 23.2321 44.4297 22.7281 39.6551 22.6485C37.0291 22.5955 34.4562 22.622 33.9522 22.6751Z" fill="white"/>
<path d="M72.2811 59.4125C71.565 59.5716 70.9018 59.7838 70.8223 59.8899C70.7427 59.996 70.2387 60.3143 69.6817 60.5796C68.488 61.1366 67.3209 62.2507 66.6578 63.4443C66.3925 63.9218 66.1008 64.3462 66.0212 64.4257C65.6233 64.744 65.252 66.8395 65.252 68.9085C65.252 71.2427 65.6498 73.179 66.2334 73.5239C66.4191 73.63 66.5782 73.8687 66.5782 74.0544C66.5782 74.5318 68.435 76.6273 68.8594 76.6273C69.0451 76.6273 69.3103 76.7865 69.4164 76.9987C69.5225 77.2109 70.4509 77.6353 71.4589 77.9536C72.9443 78.4576 73.687 78.5371 75.4376 78.4045C77.5331 78.2719 79.8408 77.6087 79.8408 77.1313C79.8408 76.9987 80 76.8926 80.1857 76.8926C80.6366 76.8926 82.7586 74.7971 82.7586 74.3462C82.7586 74.1605 82.8912 73.9748 83.0239 73.9218C83.4483 73.7891 84.0584 71.8263 84.2175 69.943C84.4562 67.6353 83.8196 64.4523 82.9178 63.4974C82.5464 63.0995 82.1751 62.5425 82.0955 62.2772C81.9894 61.9854 81.7507 61.7732 81.565 61.7732C81.3528 61.7732 81.061 61.561 80.9284 61.2958C80.7957 61.057 80.053 60.5265 79.2573 60.1287C77.6127 59.3064 74.4562 58.9881 72.2811 59.4125Z" fill="white"/>
</g>
<defs>
<clipPath id="clip0">
<rect width="100" height="100" fill="white" transform="translate(0 0.5)"/>
</clipPath>
</defs>
</svg>
