<svg width="124" height="35" viewBox="0 0 124 35" fill="none" xmlns="http://www.w3.org/2000/svg">
<path d="M20.199 16.9379C20.2182 15.8282 20.5169 14.7413 21.0675 13.7777C21.6181 12.8141 22.4028 12.0048 23.349 11.4249C22.7517 10.5725 21.9614 9.87339 21.0427 9.38438C20.1239 8.89537 19.1026 8.63033 18.062 8.61087C15.812 8.38587 13.674 9.96087 12.549 9.96087C11.424 9.96087 9.62398 8.61087 7.82398 8.72287C6.62116 8.76726 5.45028 9.12212 4.42519 9.75295C3.40009 10.3838 2.55566 11.2691 1.97398 12.3229C-0.613019 16.7109 1.29898 23.2349 3.77398 26.8359C5.01198 28.6359 6.47398 30.5479 8.27398 30.4359C10.074 30.3239 10.749 29.3109 12.999 29.3109C15.137 29.3109 15.812 30.4359 17.724 30.4359C19.636 30.4359 20.874 28.6359 22.111 26.9479C23.0197 25.7289 23.7056 24.3588 24.137 22.9009C24.024 22.6759 20.312 21.2109 20.199 16.9379Z" fill="black"/>
<path d="M16.6001 6.2497C17.1416 5.61891 17.5504 4.88532 17.8018 4.09285C18.0531 3.30038 18.142 2.46533 18.0631 1.6377C16.4409 1.85758 14.9375 2.60913 13.7881 3.77469C13.2631 4.37124 12.8629 5.0668 12.611 5.8204C12.359 6.574 12.2605 7.37041 12.3211 8.1627C13.1379 8.23224 13.9591 8.0932 14.7075 7.75859C15.4559 7.42399 16.1072 6.9048 16.6001 6.2497Z" fill="black"/>
<path d="M46.7499 30.1007H44.1629L42.8129 25.7137H37.9749L36.6249 30.1007H34.1499L38.9869 15.1387H41.9119L46.7499 30.1007ZM42.3619 23.9137L41.1249 19.9767C41.0129 19.5267 40.7879 18.6267 40.3379 17.1647C40.2259 17.8397 39.9999 18.7397 39.6629 19.9777L38.3129 23.9157L42.3619 23.9137Z" fill="black"/>
<path d="M59.1249 24.5891C59.2135 26.1842 58.6907 27.753 57.6629 28.9761C57.2284 29.4352 56.7052 29.8015 56.1252 30.0528C55.5451 30.3041 54.9201 30.4351 54.2879 30.4381C53.6845 30.4898 53.0789 30.3693 52.5413 30.0905C52.0037 29.8117 51.5562 29.3861 51.2509 28.8631V34.4881H48.8869V22.9011C48.8869 21.7761 48.8869 20.5381 48.7749 19.3011H50.9129L51.0249 20.9891C51.4032 20.3814 51.9354 19.8845 52.5676 19.5487C53.1998 19.2129 53.9096 19.0502 54.6249 19.0771C55.2279 19.0559 55.8274 19.1773 56.3748 19.4313C56.9221 19.6853 57.4018 20.0649 57.7749 20.5391C58.7172 21.6718 59.1991 23.1175 59.1249 24.5891ZM56.6499 24.7011C56.6824 23.7913 56.4478 22.892 55.9749 22.1141C55.7233 21.7893 55.3987 21.5284 55.0274 21.3525C54.6561 21.1767 54.2486 21.0909 53.8379 21.1021C53.2665 21.1172 52.7148 21.3141 52.2629 21.6641C51.7956 22.074 51.4788 22.6284 51.3629 23.2391C51.2867 23.4559 51.2488 23.6843 51.2509 23.9141V25.7141C51.2326 26.4472 51.4714 27.1636 51.9259 27.7391C52.162 28.0096 52.4576 28.2216 52.7896 28.3584C53.1216 28.4951 53.4808 28.5529 53.8389 28.5271C54.2496 28.5379 54.657 28.4517 55.0282 28.2755C55.3993 28.0993 55.7236 27.8381 55.9749 27.5131C56.4476 26.6531 56.6807 25.6819 56.6499 24.7011Z" fill="black"/>
<path d="M71.4999 24.5891C71.5885 26.1842 71.0657 27.753 70.0379 28.9761C69.6034 29.4352 69.0802 29.8015 68.5001 30.0528C67.9201 30.3041 67.2951 30.4351 66.6629 30.4381C66.0595 30.4898 65.4538 30.3693 64.9163 30.0905C64.3787 29.8117 63.9312 29.3861 63.6259 28.8631V34.4881H61.2619V22.9011C61.2619 21.7761 61.2619 20.5381 61.1499 19.3011H63.2869L63.3999 20.9891C63.7782 20.3814 64.3104 19.8845 64.9426 19.5487C65.5748 19.2129 66.2846 19.0502 66.9999 19.0771C67.6029 19.0559 68.2024 19.1773 68.7498 19.4313C69.2971 19.6853 69.7768 20.0649 70.1499 20.5391C71.0922 21.6718 71.5741 23.1175 71.4999 24.5891ZM69.0249 24.7011C69.0574 23.7913 68.8228 22.892 68.3499 22.1141C68.0983 21.7893 67.7737 21.5284 67.4024 21.3525C67.0311 21.1767 66.6236 21.0909 66.2129 21.1021C65.6415 21.1172 65.0898 21.3141 64.6379 21.6641C64.1706 22.074 63.8538 22.6284 63.7379 23.2391C63.6613 23.4558 63.6231 23.6842 63.6249 23.9141V25.7141C63.6066 26.4472 63.8454 27.1636 64.2999 27.7391C64.5358 28.0095 64.8313 28.2215 65.1631 28.3582C65.4949 28.495 65.8539 28.5528 66.2119 28.5271C66.6229 28.5382 67.0308 28.4522 67.4023 28.276C67.7738 28.0998 68.0984 27.8384 68.3499 27.5131C68.8226 26.6531 69.0557 25.6819 69.0249 24.7011Z" fill="black"/>
<path d="M85.3378 25.9374C85.3543 26.5289 85.2422 27.1169 85.0091 27.6608C84.776 28.2047 84.4275 28.6915 83.9878 29.0874C82.855 30.0297 81.4094 30.5116 79.9378 30.4374C78.6049 30.4881 77.2832 30.1771 76.1128 29.5374L76.6758 27.5124C77.7244 28.1496 78.9378 28.4627 80.1638 28.4124C80.9148 28.4295 81.6554 28.2347 82.3008 27.8504C82.5473 27.6438 82.7455 27.3857 82.8815 27.0943C83.0175 26.8028 83.0879 26.485 83.0878 26.1634C83.0852 25.8693 83.0242 25.5786 82.9083 25.3082C82.7924 25.0378 82.624 24.7932 82.4128 24.5884C81.8229 24.0773 81.1334 23.6942 80.3878 23.4634C77.7998 22.4504 76.4508 21.1004 76.4508 19.1884C76.4347 18.6134 76.5476 18.042 76.7812 17.5163C77.0148 16.9906 77.3632 16.5239 77.8008 16.1504C78.8574 15.3311 80.1791 14.9305 81.5128 15.0254C82.6749 14.9863 83.8302 15.2173 84.8878 15.7004L84.2128 17.6134C83.3074 17.1533 82.3032 16.9216 81.2878 16.9384C80.552 16.9014 79.8292 17.1423 79.2628 17.6134C79.0627 17.7727 78.9063 17.98 78.808 18.2161C78.7097 18.4521 78.6728 18.7092 78.7008 18.9634C78.6932 19.2426 78.7501 19.5198 78.8672 19.7734C78.9843 20.027 79.1583 20.2501 79.3758 20.4254C80.0207 20.9165 80.7429 21.2967 81.5128 21.5504C82.5655 21.9482 83.5236 22.5612 84.3258 23.3504C84.68 23.6763 84.9553 24.0787 85.1307 24.527C85.306 24.9753 85.3769 25.4576 85.3378 25.9374Z" fill="black"/>
<path d="M93.324 21.1006H90.737V26.3876C90.737 27.7376 91.187 28.4126 92.087 28.4126C92.4289 28.4449 92.7737 28.4064 93.1 28.2996L93.212 30.0996C92.5971 30.3061 91.946 30.3828 91.3 30.3246C90.8841 30.331 90.471 30.2548 90.0847 30.1003C89.6985 29.9458 89.3468 29.7161 89.05 29.4246C88.4278 28.5839 88.1466 27.539 88.263 26.4996V21.1006H86.687V19.3006H88.262V17.2756L90.625 16.6006V19.3006H93.212C93.3053 19.8958 93.3428 20.4984 93.324 21.1006Z" fill="black"/>
<path d="M105.25 24.5876C105.294 25.3267 105.188 26.0671 104.936 26.7635C104.685 27.4599 104.294 28.0976 103.787 28.6376C103.292 29.1872 102.684 29.6228 102.004 29.9143C101.324 30.2057 100.589 30.3461 99.8499 30.3256C99.1383 30.3404 98.4312 30.2082 97.773 29.9372C97.1149 29.6662 96.5197 29.2622 96.0249 28.7506C95.066 27.6646 94.5446 26.2612 94.5619 24.8126C94.4918 23.2878 95.0163 21.7953 96.0249 20.6496C96.5356 20.1278 97.1495 19.7184 97.8274 19.4474C98.5053 19.1763 99.2323 19.0497 99.9619 19.0756C100.674 19.0607 101.381 19.1929 102.039 19.4639C102.697 19.7349 103.292 20.1389 103.787 20.6506C104.284 21.174 104.67 21.7927 104.921 22.4694C105.173 23.146 105.284 23.8665 105.25 24.5876ZM102.775 24.6996C102.792 23.7915 102.559 22.8963 102.1 22.1126C101.907 21.7171 101.6 21.3882 101.22 21.1678C100.839 20.9475 100.401 20.8457 99.9619 20.8756C99.5117 20.8688 99.0676 20.9793 98.6731 21.1961C98.2786 21.413 97.9473 21.7289 97.7119 22.1126C97.239 22.8905 97.0044 23.7898 97.0369 24.6996C97.0192 25.6079 97.2528 26.5036 97.7119 27.2876C97.9266 27.6722 98.2424 27.9908 98.6252 28.2088C99.008 28.4268 99.4432 28.5358 99.8836 28.5242C100.324 28.5126 100.753 28.3806 101.123 28.1427C101.494 27.9048 101.793 27.57 101.987 27.1746C102.545 26.4748 102.825 25.594 102.774 24.7006L102.775 24.6996Z" fill="black"/>
<path d="M113.012 21.4382C112.787 21.4382 112.562 21.3252 112.225 21.3252C111.844 21.3028 111.464 21.3855 111.127 21.5641C110.79 21.7427 110.508 22.0105 110.313 22.3382C109.878 22.9615 109.679 23.7188 109.751 24.4752V30.1002H107.388V22.6752C107.411 21.549 107.373 20.4224 107.276 19.3002H109.413L109.526 21.3252H109.638C109.879 20.6548 110.309 20.0688 110.876 19.6382C111.378 19.302 111.961 19.1078 112.564 19.0762H113.127L113.014 21.4392L113.012 21.4382Z" fill="black"/>
<path d="M123.813 24.2511C123.837 24.6297 123.8 25.0097 123.701 25.3761H116.501C116.477 25.8378 116.556 26.299 116.731 26.7268C116.906 27.1546 117.173 27.5385 117.514 27.8511C118.187 28.3778 119.021 28.6561 119.876 28.6391C120.881 28.6817 121.883 28.4893 122.801 28.0771L123.139 29.7651C121.999 30.2362 120.773 30.4661 119.539 30.4401C118.816 30.4953 118.09 30.3931 117.41 30.1405C116.73 29.8879 116.114 29.491 115.602 28.9771C114.643 27.8914 114.122 26.4884 114.139 25.0401C114.084 23.5712 114.564 22.1321 115.489 20.9901C115.946 20.4248 116.532 19.9769 117.197 19.6835C117.863 19.39 118.588 19.2596 119.314 19.3031C119.992 19.26 120.669 19.3928 121.28 19.6885C121.891 19.9843 122.415 20.433 122.802 20.9911C123.534 21.9137 123.894 23.0764 123.813 24.2511ZM121.451 23.5761C121.49 22.944 121.333 22.3152 121.001 21.7761C120.805 21.4486 120.524 21.181 120.187 21.0026C119.849 20.8241 119.47 20.7416 119.089 20.7641C118.71 20.7548 118.336 20.8429 118.001 21.0201C117.666 21.1974 117.382 21.4577 117.177 21.7761C116.724 22.3089 116.484 22.9901 116.502 23.6891L121.452 23.5771L121.451 23.5761Z" fill="black"/>
<path d="M39.731 7.789C39.731 6.876 39.291 6.26 38.532 5.952C39.225 5.622 39.61 5.028 39.61 4.225C39.61 2.927 38.521 2.102 37.113 2.102C36.123 2.102 35.32 2.355 34.583 3.004L35.32 3.763C35.826 3.312 36.387 3.147 37.069 3.147C37.839 3.147 38.422 3.565 38.422 4.302C38.422 5.061 37.96 5.501 37.168 5.501H36.211V6.491H37.146C38.004 6.491 38.532 6.931 38.532 7.756C38.532 8.537 37.872 8.999 37.058 8.999C36.255 8.999 35.683 8.79 35.089 8.24L34.308 9.032C35.133 9.835 35.947 10.066 37.08 10.066C38.576 10.066 39.731 9.175 39.731 7.789ZM45.4715 10V6.271C45.4715 5.006 44.6905 4.357 43.1395 4.357C42.6115 4.357 42.2155 4.423 41.8965 4.577C41.6215 4.698 41.4785 4.83 41.1705 5.16L41.9075 5.853C42.0725 5.644 42.1935 5.534 42.3585 5.457C42.5565 5.358 42.7875 5.314 43.1065 5.314C43.9865 5.314 44.3605 5.622 44.3605 6.348V6.755H42.8645C41.6765 6.755 40.9505 7.36 40.9505 8.372C40.9505 9.45 41.6435 10.055 42.8865 10.055C43.5465 10.055 43.9095 9.956 44.3715 9.494V10H45.4715ZM44.3605 7.987C44.3605 8.801 44.0085 9.131 43.1395 9.131C42.3805 9.131 42.0395 8.878 42.0395 8.339C42.0395 7.811 42.3805 7.547 43.0405 7.547H44.3605V7.987ZM50.8645 5.402V4.423H47.2455V10H48.3675V5.402H50.8645ZM56.4391 7.228C56.4391 6.568 56.4061 6.194 56.3181 5.798C56.0981 4.83 55.4161 4.357 54.4261 4.357C53.7551 4.357 53.4361 4.544 52.9851 5.006V4.423H51.8851V12.255H53.0071V9.428C53.4251 9.89 53.7991 10.066 54.4371 10.066C55.0091 10.066 55.4931 9.89 55.8231 9.56C56.2631 9.12 56.4391 8.438 56.4391 7.228ZM55.3281 7.206C55.3281 8.537 54.9981 9.065 54.1731 9.065C53.3481 9.065 53.0071 8.537 53.0071 7.25C53.0071 6.612 53.0731 6.194 53.2161 5.897C53.3921 5.534 53.7001 5.358 54.1621 5.358C54.9981 5.358 55.3281 5.875 55.3281 7.206ZM62.0493 4.423H60.8503L59.5523 8.361L58.2213 4.423H57.0223L58.9803 9.736L58.6723 10.616C58.5073 11.089 58.3313 11.199 57.8693 11.199H57.5833V12.211H58.0343C58.8373 12.211 59.3103 11.87 59.5853 11.111L62.0493 4.423ZM66.853 8.383C66.853 7.767 66.49 7.283 65.951 7.085C66.457 6.876 66.765 6.403 66.765 5.864C66.765 4.885 65.841 4.357 64.763 4.357C63.96 4.357 63.223 4.511 62.607 4.984L63.234 5.699C63.641 5.413 64.092 5.27 64.576 5.27C65.236 5.27 65.665 5.501 65.665 5.974C65.665 6.447 65.313 6.722 64.774 6.722H63.949V7.569H64.785C65.368 7.569 65.753 7.8 65.753 8.317C65.753 8.834 65.148 9.109 64.576 9.109C63.971 9.109 63.498 8.955 63.058 8.548L62.387 9.263C63.047 9.868 63.85 10.066 64.73 10.066C65.863 10.066 66.853 9.406 66.853 8.383ZM73.0269 10V4.423H71.9049L69.5179 8.207V4.423H68.3959V10H69.5179L71.9049 6.161V10H73.0269ZM78.637 5.402V4.423H74.039V5.402H75.81V10H76.932V5.402H78.637ZM83.9578 7.547V7.041C83.9578 5.402 83.0448 4.357 81.6038 4.357C80.1408 4.357 79.2388 5.435 79.2388 7.184C79.2388 9.076 80.0968 10.066 81.7688 10.066C82.6598 10.066 83.1988 9.813 83.8258 9.197L83.1218 8.526C82.7258 8.911 82.3738 9.109 81.8128 9.109C80.7678 9.109 80.3718 8.482 80.3498 7.547H83.9578ZM82.8578 6.755H80.3498C80.3718 5.985 80.7018 5.292 81.6038 5.292C82.5168 5.292 82.8028 5.996 82.8578 6.755ZM92.5631 10V4.423H91.4411V6.645H89.2191V4.423H88.0971V10H89.2191V7.624H91.4411V10H92.5631ZM98.452 10V6.271C98.452 5.006 97.671 4.357 96.12 4.357C95.592 4.357 95.196 4.423 94.877 4.577C94.602 4.698 94.459 4.83 94.151 5.16L94.888 5.853C95.053 5.644 95.174 5.534 95.339 5.457C95.537 5.358 95.768 5.314 96.087 5.314C96.967 5.314 97.341 5.622 97.341 6.348V6.755H95.845C94.657 6.755 93.931 7.36 93.931 8.372C93.931 9.45 94.624 10.055 95.867 10.055C96.527 10.055 96.89 9.956 97.352 9.494V10H98.452ZM97.341 7.987C97.341 8.801 96.989 9.131 96.12 9.131C95.361 9.131 95.02 8.878 95.02 8.339C95.02 7.811 95.361 7.547 96.021 7.547H97.341V7.987Z" fill="black"/>
</svg>
