<svg width="122" height="34" viewBox="0 0 122 34" fill="none" xmlns="http://www.w3.org/2000/svg">
<path d="M60.9691 20.4042C60.3705 20.3904 59.7754 20.4981 59.2197 20.7207C58.6639 20.9434 58.159 21.2763 57.7355 21.6995C57.312 22.1227 56.9787 22.6274 56.7557 23.183C56.5327 23.7386 56.4247 24.3337 56.4381 24.9322C56.4342 25.528 56.5488 26.1185 56.7753 26.6695C57.0017 27.2205 57.3354 27.721 57.7571 28.1419C58.1787 28.5628 58.6798 28.8956 59.2312 29.1211C59.7826 29.3466 60.3734 29.4601 60.9691 29.4552C61.5674 29.4686 62.1622 29.3606 62.7176 29.1378C63.273 28.915 63.7775 28.582 64.2007 28.1588C64.6238 27.7357 64.9569 27.2311 65.1797 26.6757C65.4025 26.1203 65.5105 25.5255 65.4971 24.9272C65.5187 24.327 65.4163 23.7288 65.1963 23.17C64.9763 22.6111 64.6435 22.1036 64.2186 21.6792C63.7936 21.2547 63.2858 20.9224 62.7267 20.7031C62.1676 20.4837 61.5693 20.382 60.9691 20.4042ZM60.9691 27.5642C60.2813 27.5084 59.6396 27.1958 59.1718 26.6884C58.704 26.1811 58.4443 25.5163 58.4443 24.8262C58.4443 24.1361 58.704 23.4713 59.1718 22.964C59.6396 22.4567 60.2813 22.144 60.9691 22.0882C61.3184 22.0906 61.6635 22.1646 61.983 22.3058C62.3025 22.447 62.5897 22.6523 62.8266 22.909C63.0635 23.1657 63.2452 23.4683 63.3603 23.7981C63.4755 24.1279 63.5217 24.4778 63.4961 24.8262C63.5129 25.1727 63.4605 25.519 63.3421 25.845C63.2237 26.171 63.0416 26.4702 62.8064 26.7251C62.5712 26.98 62.2876 27.1856 61.9722 27.3298C61.6567 27.4741 61.3158 27.5541 60.9691 27.5652V27.5642ZM51.1761 20.4042C50.5778 20.3908 49.983 20.4988 49.4276 20.7216C48.8722 20.9444 48.3677 21.2775 47.9445 21.7006C47.5213 22.1238 47.1883 22.6283 46.9655 23.1837C46.7427 23.7391 46.6347 24.3339 46.6481 24.9322C46.6442 25.5277 46.7587 26.118 46.985 26.6688C47.2112 27.2196 47.5447 27.72 47.966 28.1408C48.3873 28.5617 48.8881 28.8946 49.4391 29.1202C49.9902 29.3459 50.5806 29.4597 51.1761 29.4552C51.7744 29.4686 52.3692 29.3606 52.9246 29.1378C53.48 28.915 53.9845 28.582 54.4077 28.1588C54.8308 27.7357 55.1639 27.2311 55.3867 26.6757C55.6095 26.1203 55.7175 25.5255 55.7041 24.9272C55.7257 24.327 55.6233 23.7288 55.4033 23.17C55.1833 22.6111 54.8505 22.1036 54.4256 21.6792C54.0006 21.2547 53.4928 20.9224 52.9337 20.7031C52.3746 20.4837 51.7763 20.382 51.1761 20.4042ZM51.1761 27.5642C50.4883 27.5084 49.8466 27.1958 49.3788 26.6884C48.911 26.1811 48.6513 25.5163 48.6513 24.8262C48.6513 24.1361 48.911 23.4713 49.3788 22.964C49.8466 22.4567 50.4883 22.144 51.1761 22.0882C51.5254 22.0906 51.8705 22.1646 52.19 22.3058C52.5095 22.447 52.7967 22.6523 53.0336 22.909C53.2705 23.1657 53.4522 23.4683 53.5673 23.7981C53.6825 24.1279 53.7287 24.4778 53.7031 24.8262C53.7199 25.1727 53.6675 25.519 53.5491 25.845C53.4307 26.171 53.2486 26.4702 53.0134 26.7251C52.7782 26.98 52.4946 27.1856 52.1792 27.3298C51.8637 27.4741 51.5228 27.5541 51.1761 27.5652V27.5642ZM39.4881 21.7732V23.6732H44.0161C43.9508 24.5768 43.5794 25.4312 42.9631 26.0952C42.5088 26.5491 41.9656 26.9041 41.3676 27.1382C40.7696 27.3722 40.1298 27.4801 39.4881 27.4552C38.8276 27.4623 38.1725 27.3357 37.5622 27.0831C36.9518 26.8306 36.3989 26.4572 35.9365 25.9855C35.4741 25.5138 35.1119 24.9535 34.8716 24.3382C34.6313 23.7229 34.5178 23.0654 34.5381 22.4052C34.5271 21.7474 34.6469 21.094 34.8905 20.4829C35.1341 19.8718 35.4967 19.3151 35.9572 18.8453C36.4178 18.3755 36.967 18.0018 37.5732 17.746C38.1793 17.4902 38.8302 17.3574 39.4881 17.3552C40.7756 17.3675 42.0132 17.855 42.9631 18.7242L44.3321 17.3552C43.0622 16.1257 41.3606 15.4434 39.5931 15.4552C37.7436 15.4665 35.9714 16.1991 34.6538 17.4971C33.3362 18.7951 32.5771 20.5561 32.5381 22.4052C32.5771 24.2544 33.3362 26.0153 34.6538 27.3133C35.9714 28.6113 37.7436 29.3439 39.5931 29.3552C40.4989 29.4058 41.4044 29.2523 42.243 28.9062C43.0816 28.56 43.8317 28.03 44.4381 27.3552C45.5497 26.1537 46.1535 24.5688 46.1231 22.9322C46.1454 22.5432 46.1101 22.1529 46.0181 21.7742L39.4881 21.7732ZM87.2941 23.2472C87.0354 22.4385 86.5314 21.7304 85.8521 21.221C85.1728 20.7115 84.3519 20.4261 83.5031 20.4042C82.9236 20.4069 82.3508 20.5282 81.82 20.7608C81.2893 20.9934 80.8118 21.3324 80.4171 21.7567C80.0224 22.181 79.7189 22.6816 79.5252 23.2278C79.3315 23.774 79.2519 24.3541 79.2911 24.9322C79.2756 25.522 79.3786 26.1089 79.5941 26.6581C79.8096 27.2073 80.1332 27.7076 80.5457 28.1295C80.9582 28.5513 81.4512 28.886 81.9954 29.1137C82.5397 29.3414 83.1241 29.4576 83.7141 29.4552C84.4478 29.4623 85.1712 29.2824 85.816 28.9325C86.4609 28.5826 87.0061 28.0742 87.4001 27.4552L85.9261 26.4022C85.6994 26.7871 85.3762 27.1061 84.9884 27.3278C84.6006 27.5494 84.1617 27.6661 83.7151 27.6662C83.2511 27.6899 82.7909 27.5715 82.3958 27.3269C82.0008 27.0823 81.6897 26.7231 81.5041 26.2972L87.5041 23.7702L87.2941 23.2472ZM81.1871 24.7212C81.1651 24.0698 81.3927 23.4345 81.8233 22.9451C82.2539 22.4558 82.8551 22.1493 83.5041 22.0882C83.8448 22.077 84.1821 22.1594 84.4792 22.3265C84.7763 22.4937 85.0218 22.7392 85.1891 23.0362L81.1871 24.7212ZM76.2381 29.0392H78.2381V15.8762H76.2381V29.0392ZM73.0791 21.3552C72.4423 20.6984 71.5717 20.3199 70.6571 20.3022C69.493 20.3553 68.3943 20.8553 67.5898 21.6983C66.7852 22.5412 66.3369 23.662 66.3381 24.8272C66.3298 25.4015 66.435 25.9717 66.6477 26.5052C66.8604 27.0386 67.1763 27.5248 67.5775 27.9358C67.9786 28.3468 68.457 28.6745 68.9852 28.9001C69.5133 29.1256 70.0808 29.2446 70.6551 29.2502C71.0946 29.2537 71.5296 29.1613 71.9298 28.9794C72.33 28.7976 72.6857 28.5306 72.9721 28.1972H73.0771V28.8292C73.135 29.4099 72.9787 29.9918 72.6378 30.4654C72.2968 30.939 71.7946 31.2718 71.2255 31.4011C70.6564 31.5305 70.0597 31.4475 69.5475 31.1678C69.0353 30.8881 68.6429 30.4309 68.4441 29.8822L66.7591 30.6192C67.0944 31.4018 67.6523 32.0686 68.3635 32.5367C69.0747 33.0048 69.9077 33.2536 70.7591 33.2522C73.0761 33.2522 74.9711 31.8832 74.9711 28.6192V20.6192H73.0711L73.0791 21.3552ZM70.7621 27.5652C70.0743 27.5094 69.4326 27.1968 68.9648 26.6894C68.497 26.1821 68.2373 25.5173 68.2373 24.8272C68.2373 24.1371 68.497 23.4723 68.9648 22.965C69.4326 22.4577 70.0743 22.145 70.7621 22.0892C71.1033 22.103 71.4381 22.1857 71.7465 22.3322C72.055 22.4788 72.3306 22.6861 72.5568 22.9419C72.783 23.1976 72.9552 23.4965 73.063 23.8205C73.1708 24.1445 73.212 24.4869 73.1841 24.8272C73.212 25.1675 73.1708 25.51 73.063 25.834C72.9552 26.158 72.783 26.4568 72.5568 26.7126C72.3306 26.9683 72.055 27.1757 71.7465 27.3222C71.4381 27.4688 71.1033 27.5514 70.7621 27.5652ZM96.4551 15.8772H91.7161V29.0392H93.7161V24.0902H96.4541C97.0112 24.1191 97.5684 24.0342 98.0918 23.8409C98.6151 23.6475 99.0936 23.3497 99.4982 22.9656C99.9027 22.5814 100.225 22.1189 100.445 21.6063C100.665 21.0937 100.779 20.5416 100.779 19.9837C100.779 19.4258 100.665 18.8738 100.445 18.3611C100.225 17.8485 99.9027 17.386 99.4982 17.0019C99.0936 16.6177 98.6151 16.3199 98.0918 16.1266C97.5684 15.9332 97.0112 15.8484 96.4541 15.8772H96.4551ZM96.5601 22.1952H93.7181V17.6662H96.5611C97.158 17.6646 97.7323 17.8938 98.1641 18.3059C98.596 18.7179 98.8518 19.2809 98.8781 19.8772C98.8551 20.4844 98.6036 21.0605 98.1739 21.4901C97.7443 21.9197 97.1683 22.1712 96.5611 22.1942L96.5601 22.1952ZM108.67 20.2952C107.957 20.238 107.242 20.3986 106.622 20.7557C106.002 21.1127 105.504 21.6495 105.195 22.2952L106.985 23.0322C107.16 22.7181 107.422 22.4614 107.74 22.2932C108.057 22.125 108.417 22.0524 108.775 22.0842C109.274 22.0468 109.769 22.1998 110.16 22.5124C110.55 22.8251 110.808 23.2741 110.881 23.7692V23.8742C110.269 23.5337 109.581 23.3525 108.881 23.3472C106.981 23.3472 105.09 24.4002 105.09 26.2952C105.108 26.7042 105.206 27.1056 105.38 27.4761C105.555 27.8465 105.801 28.1786 106.104 28.453C106.408 28.7274 106.764 28.9386 107.15 29.0742C107.536 29.2099 107.945 29.2674 108.354 29.2432C108.847 29.2596 109.337 29.1526 109.778 28.9318C110.219 28.7111 110.598 28.3837 110.881 27.9792H110.986V29.0322H112.886V23.9842C112.809 22.939 112.323 21.9662 111.534 21.2765C110.745 20.5867 109.716 20.2356 108.67 20.2992V20.2952ZM108.459 27.5612C107.827 27.5612 106.879 27.2452 106.879 26.4032C106.879 25.3502 108.037 25.0342 108.985 25.0342C109.606 25.0362 110.218 25.1802 110.775 25.4552C110.696 26.0217 110.421 26.5427 109.998 26.9281C109.576 27.3134 109.031 27.5388 108.46 27.5652L108.459 27.5612ZM119.516 20.6112L117.305 26.2972H117.2L114.883 20.6112H112.777L116.252 28.6112L114.252 33.0342H116.252L121.622 20.6092L119.516 20.6112ZM101.826 29.0352H103.826V15.8762H101.826V29.0352Z" fill="black"/>
<path d="M0.837891 31.7221V6.03613L13.6809 18.8791C9.39989 23.0581 5.11889 27.4361 0.837891 31.7221Z" fill="black"/>
<path d="M1.95898 4.81205C2.15618 4.75893 2.36396 4.75927 2.56098 4.81305C2.75799 4.86683 2.93713 4.97211 3.07998 5.11805C5.21998 6.54505 7.46298 7.87005 9.60298 9.29705L17.859 14.4961C17.8855 14.4961 17.9109 14.5066 17.9297 14.5253C17.9484 14.5441 17.959 14.5695 17.959 14.5961C16.94 15.7171 15.92 16.7361 14.901 17.8581C10.521 13.4771 6.23998 9.09405 1.95898 4.81205Z" fill="black"/>
<path d="M14.9038 19.8984C15.9228 20.9174 16.9428 22.0384 17.9618 23.1604C17.9076 23.2144 17.8375 23.2494 17.7618 23.2604C12.8688 26.4204 7.87484 29.4784 2.98184 32.6374C2.81903 32.7466 2.63532 32.8207 2.44235 32.8552C2.24937 32.8896 2.05135 32.8836 1.86084 32.8374C6.23984 28.5624 10.6228 24.2814 14.9038 19.8984Z" fill="black"/>
<path d="M15.8208 18.7771C17.0438 17.6561 18.1648 16.5351 19.3878 15.4131C20.1008 15.8211 20.8148 16.3301 21.6298 16.8401C22.0378 17.1461 22.4448 17.3501 22.8528 17.6551C23.0565 17.7712 23.2274 17.937 23.3495 18.1372C23.4716 18.3373 23.5409 18.5652 23.5509 18.7994C23.5609 19.0337 23.5113 19.2666 23.4067 19.4764C23.302 19.6863 23.1459 19.8661 22.9528 19.9991C21.8318 20.8141 20.6088 21.5281 19.4868 22.2411C18.1648 21.1211 17.0438 20.0001 15.8208 18.7771Z" fill="black"/>
<path d="M37.731 7.789C37.731 6.876 37.291 6.26 36.532 5.952C37.225 5.622 37.61 5.028 37.61 4.225C37.61 2.927 36.521 2.102 35.113 2.102C34.123 2.102 33.32 2.355 32.583 3.004L33.32 3.763C33.826 3.312 34.387 3.147 35.069 3.147C35.839 3.147 36.422 3.565 36.422 4.302C36.422 5.061 35.96 5.501 35.168 5.501H34.211V6.491H35.146C36.004 6.491 36.532 6.931 36.532 7.756C36.532 8.537 35.872 8.999 35.058 8.999C34.255 8.999 33.683 8.79 33.089 8.24L32.308 9.032C33.133 9.835 33.947 10.066 35.08 10.066C36.576 10.066 37.731 9.175 37.731 7.789ZM43.4715 10V6.271C43.4715 5.006 42.6905 4.357 41.1395 4.357C40.6115 4.357 40.2155 4.423 39.8965 4.577C39.6215 4.698 39.4785 4.83 39.1705 5.16L39.9075 5.853C40.0725 5.644 40.1935 5.534 40.3585 5.457C40.5565 5.358 40.7875 5.314 41.1065 5.314C41.9865 5.314 42.3605 5.622 42.3605 6.348V6.755H40.8645C39.6765 6.755 38.9505 7.36 38.9505 8.372C38.9505 9.45 39.6435 10.055 40.8865 10.055C41.5465 10.055 41.9095 9.956 42.3715 9.494V10H43.4715ZM42.3605 7.987C42.3605 8.801 42.0085 9.131 41.1395 9.131C40.3805 9.131 40.0395 8.878 40.0395 8.339C40.0395 7.811 40.3805 7.547 41.0405 7.547H42.3605V7.987ZM48.8645 5.402V4.423H45.2455V10H46.3675V5.402H48.8645ZM54.4391 7.228C54.4391 6.568 54.4061 6.194 54.3181 5.798C54.0981 4.83 53.4161 4.357 52.4261 4.357C51.7551 4.357 51.4361 4.544 50.9851 5.006V4.423H49.8851V12.255H51.0071V9.428C51.4251 9.89 51.7991 10.066 52.4371 10.066C53.0091 10.066 53.4931 9.89 53.8231 9.56C54.2631 9.12 54.4391 8.438 54.4391 7.228ZM53.3281 7.206C53.3281 8.537 52.9981 9.065 52.1731 9.065C51.3481 9.065 51.0071 8.537 51.0071 7.25C51.0071 6.612 51.0731 6.194 51.2161 5.897C51.3921 5.534 51.7001 5.358 52.1621 5.358C52.9981 5.358 53.3281 5.875 53.3281 7.206ZM60.0493 4.423H58.8503L57.5523 8.361L56.2213 4.423H55.0223L56.9803 9.736L56.6723 10.616C56.5073 11.089 56.3313 11.199 55.8693 11.199H55.5833V12.211H56.0343C56.8373 12.211 57.3103 11.87 57.5853 11.111L60.0493 4.423ZM64.853 8.383C64.853 7.767 64.49 7.283 63.951 7.085C64.457 6.876 64.765 6.403 64.765 5.864C64.765 4.885 63.841 4.357 62.763 4.357C61.96 4.357 61.223 4.511 60.607 4.984L61.234 5.699C61.641 5.413 62.092 5.27 62.576 5.27C63.236 5.27 63.665 5.501 63.665 5.974C63.665 6.447 63.313 6.722 62.774 6.722H61.949V7.569H62.785C63.368 7.569 63.753 7.8 63.753 8.317C63.753 8.834 63.148 9.109 62.576 9.109C61.971 9.109 61.498 8.955 61.058 8.548L60.387 9.263C61.047 9.868 61.85 10.066 62.73 10.066C63.863 10.066 64.853 9.406 64.853 8.383ZM71.0269 10V4.423H69.9049L67.5179 8.207V4.423H66.3959V10H67.5179L69.9049 6.161V10H71.0269ZM76.637 5.402V4.423H72.039V5.402H73.81V10H74.932V5.402H76.637ZM81.9578 7.547V7.041C81.9578 5.402 81.0448 4.357 79.6038 4.357C78.1408 4.357 77.2388 5.435 77.2388 7.184C77.2388 9.076 78.0968 10.066 79.7688 10.066C80.6598 10.066 81.1988 9.813 81.8258 9.197L81.1218 8.526C80.7258 8.911 80.3738 9.109 79.8128 9.109C78.7678 9.109 78.3718 8.482 78.3498 7.547H81.9578ZM80.8578 6.755H78.3498C78.3718 5.985 78.7018 5.292 79.6038 5.292C80.5168 5.292 80.8028 5.996 80.8578 6.755ZM90.5631 10V4.423H89.4411V6.645H87.2191V4.423H86.0971V10H87.2191V7.624H89.4411V10H90.5631ZM96.452 10V6.271C96.452 5.006 95.671 4.357 94.12 4.357C93.592 4.357 93.196 4.423 92.877 4.577C92.602 4.698 92.459 4.83 92.151 5.16L92.888 5.853C93.053 5.644 93.174 5.534 93.339 5.457C93.537 5.358 93.768 5.314 94.087 5.314C94.967 5.314 95.341 5.622 95.341 6.348V6.755H93.845C92.657 6.755 91.931 7.36 91.931 8.372C91.931 9.45 92.624 10.055 93.867 10.055C94.527 10.055 94.89 9.956 95.352 9.494V10H96.452ZM95.341 7.987C95.341 8.801 94.989 9.131 94.12 9.131C93.361 9.131 93.02 8.878 93.02 8.339C93.02 7.811 93.361 7.547 94.021 7.547H95.341V7.987Z" fill="black"/>
</svg>
