<svg width="71" height="70" viewBox="0 0 71 70" fill="none" xmlns="http://www.w3.org/2000/svg">
<path d="M52.5575 0H18.4427C15.6995 0 13.4676 2.23171 13.4676 4.97494V65.0249C13.4676 67.7681 15.6995 70 18.4427 70H52.5575C55.3007 70 57.5324 67.7683 57.5324 65.0249V4.97494C57.5324 2.23171 55.3007 0 52.5575 0ZM55.0143 65.0249C55.0143 66.3796 53.9122 67.4819 52.5575 67.4819H18.4427C17.088 67.4819 15.9857 66.3798 15.9857 65.0249V4.97494C15.9857 3.6202 17.0878 2.51811 18.4427 2.51811H52.5575C53.9121 2.51811 55.0143 3.6202 55.0143 4.97494V65.0249Z" fill="#020217"/>
<path d="M48.8455 29.582H22.1547C21.4592 29.582 20.8957 30.1458 20.8957 30.8411V38.1433C20.8957 38.8386 21.4592 39.4023 22.1547 39.4023H48.8453C49.5408 39.4023 50.1044 38.8386 50.1044 38.1433V30.8411C50.1045 30.1458 49.5408 29.582 48.8455 29.582ZM35.4811 32.1001H42.6959L41.3761 36.8842H34.1612L35.4811 32.1001ZM31.5493 36.8842H29.0805L30.4004 32.1001H32.8689L31.5493 36.8842ZM23.4138 32.1001H27.7882L26.4684 36.8842H23.4136V32.1001H23.4138ZM47.5864 36.8842H43.9882L45.308 32.1001H47.5866V36.8842H47.5864Z" fill="#020217"/>
<path d="M35.5 26.5565C41.3313 26.5565 46.0756 21.8122 46.0756 15.9808C46.0756 10.1493 41.3313 5.40521 35.5 5.40521C29.6688 5.40521 24.9245 10.1493 24.9245 15.9808C24.9245 21.8122 29.6688 26.5565 35.5 26.5565ZM35.5 7.92332C39.943 7.92332 43.5575 11.5378 43.5575 15.9808C43.5575 20.4237 39.943 24.0384 35.5 24.0384C31.0571 24.0384 27.4426 20.4237 27.4426 15.9808C27.4426 11.5378 31.0573 7.92332 35.5 7.92332Z" fill="#020217"/>
<path d="M35.5 22.1499C38.9016 22.1499 41.669 19.3825 41.669 15.9807C41.669 12.5789 38.9016 9.81152 35.5 9.81152C32.0982 9.81152 29.3308 12.5789 29.3308 15.9807C29.3308 19.3825 32.0984 22.1499 35.5 22.1499ZM35.5 12.3298C37.5131 12.3298 39.1509 13.9676 39.1509 15.9809C39.1509 17.9942 37.5131 19.632 35.5 19.632C33.4869 19.632 31.8489 17.9942 31.8489 15.9809C31.8489 13.9676 33.4869 12.3298 35.5 12.3298Z" fill="#020217"/>
<path d="M35.3799 43.647C34.889 43.316 34.2094 43.386 33.7916 43.8031C33.4481 44.1459 33.333 44.672 33.5003 45.1268C33.684 45.6262 34.1784 45.9663 34.7124 45.9528C35.2435 45.9392 35.7169 45.5821 35.8796 45.0778C36.0478 44.5559 35.8455 43.9463 35.3799 43.647C35.3125 43.6017 35.4504 43.6923 35.3799 43.647Z" fill="#020217"/>
<path d="M35.8447 48.7454C35.6437 48.2703 35.169 47.9559 34.6507 47.9684C34.1216 47.9812 33.6559 48.3329 33.4872 48.8318C33.3207 49.3245 33.4919 49.8956 33.9024 50.2154C34.3309 50.5493 34.9267 50.5703 35.3798 50.273C35.8794 49.9452 36.0639 49.2945 35.8447 48.7454C35.8128 48.6696 35.8749 48.8209 35.8447 48.7454Z" fill="#020217"/>
<path d="M35.8447 53.2779C35.6563 52.8228 35.2056 52.5129 34.7125 52.501C34.1732 52.4881 33.6805 52.8297 33.4971 53.3352C33.3147 53.8385 33.4849 54.4232 33.9076 54.751C34.3486 55.093 34.9684 55.1021 35.4213 54.7774C35.8919 54.4403 36.0572 53.8101 35.8447 53.2779C35.8128 53.2007 35.8749 53.3535 35.8447 53.2779Z" fill="#020217"/>
<path d="M35.3798 57.2447C34.9047 56.9244 34.2468 56.9778 33.8268 57.3665C33.4716 57.6952 33.3349 58.2154 33.4833 58.6757C33.6527 59.2013 34.1593 59.5624 34.7123 59.549C35.2436 59.5361 35.7167 59.1807 35.8795 58.6757C36.0478 58.1536 35.8455 57.5441 35.3798 57.2447C35.3125 57.1994 35.4503 57.2901 35.3798 57.2447Z" fill="#020217"/>
<path d="M30.6825 44.2127C30.2445 43.1771 28.7202 43.2042 28.3351 44.27C27.9455 45.3486 29.1512 46.3496 30.1413 45.7886C30.6832 45.4814 30.9264 44.7894 30.6825 44.2127Z" fill="#020217"/>
<path d="M30.6825 48.7454C30.6191 48.5921 30.5259 48.4546 30.4106 48.3358C29.9194 47.8575 29.1193 47.8477 28.6294 48.3358C28.1829 48.7808 28.1438 49.5105 28.5311 50.0056C28.8918 50.4667 29.5485 50.6136 30.0726 50.3576C30.6584 50.0716 30.938 49.3492 30.6825 48.7454C30.6506 48.6681 30.7146 48.8209 30.6825 48.7454Z" fill="#020217"/>
<path d="M30.6825 53.278C30.6191 53.1247 30.5259 52.9872 30.4106 52.8683C29.9192 52.3901 29.1194 52.3803 28.6294 52.8683C28.195 53.301 28.1443 54.0025 28.5013 54.4987C28.8654 55.0047 29.5729 55.1612 30.1188 54.8666C30.6753 54.5659 30.9303 53.8637 30.6825 53.278C30.6506 53.2007 30.7146 53.3535 30.6825 53.278Z" fill="#020217"/>
<path d="M30.6826 57.8087C30.2558 56.8008 28.7809 56.7919 28.3575 57.8087C28.1515 58.3036 28.2905 58.895 28.6978 59.2442C29.0992 59.5883 29.6815 59.6459 30.1412 59.3854C30.6868 59.0765 30.9221 58.388 30.6826 57.8087C30.6507 57.7333 30.7146 57.8861 30.6826 57.8087Z" fill="#020217"/>
<path d="M25.5204 44.2127C25.1746 43.3952 24.1015 43.1873 23.4673 43.8031C22.7972 44.4934 23.1144 45.6759 24.052 45.9151C25.0285 46.1644 25.9161 45.1479 25.5204 44.2127Z" fill="#020217"/>
<path d="M25.5204 48.7453C25.1739 47.9263 24.1022 47.7193 23.4673 48.3357C22.7963 49.027 23.1154 50.2067 24.052 50.4471C25.0284 50.6977 25.9159 49.6804 25.5204 48.7453Z" fill="#020217"/>
<path d="M25.5204 53.2779C25.1798 52.455 24.0987 52.2554 23.4673 52.8683C22.7779 53.5786 23.1376 54.7925 24.1121 54.9936C25.0737 55.1919 25.9049 54.1865 25.5204 53.2779C25.4885 53.2007 25.5525 53.3535 25.5204 53.2779Z" fill="#020217"/>
<path d="M25.5204 57.8106C25.0943 56.7813 23.586 56.8022 23.1843 57.8393C22.9944 58.3291 23.1363 58.9021 23.5358 59.2444C23.9369 59.5882 24.5197 59.6461 24.9792 59.3856C25.5211 59.0785 25.7645 58.3875 25.5204 57.8106C25.4885 57.7333 25.5525 57.8861 25.5204 57.8106Z" fill="#020217"/>
<path d="M45.8239 50.9891C43.4634 50.9891 41.5433 52.9094 41.5433 55.2698C41.5433 57.6301 43.4634 59.5504 45.8239 59.5504C48.1844 59.5504 50.1045 57.6301 50.1045 55.2698C50.1045 52.9094 48.1842 50.9891 45.8239 50.9891ZM45.8239 57.0323C44.8521 57.0323 44.0614 56.2416 44.0614 55.2698C44.0614 54.2979 44.8521 53.5072 45.8239 53.5072C46.7957 53.5072 47.5864 54.2979 47.5864 55.2698C47.5864 56.2416 46.7957 57.0323 45.8239 57.0323Z" fill="#020217"/>
</svg>
