<svg width="31" height="31" viewBox="0 0 31 31" fill="none" xmlns="http://www.w3.org/2000/svg">
<path d="M28.2754 11.2012H22.3396C22.8825 10.1479 23.1895 8.95385 23.1895 7.68945C23.1895 3.44948 19.74 0 15.5 0C11.26 0 7.81055 3.44948 7.81055 7.68945C7.81055 8.95385 8.11746 10.1479 8.66044 11.2012H2.72461C1.22226 11.2012 0 12.4234 0 13.9258V28.2754C0 29.1755 0.439086 29.9748 1.114 30.4712C1.13126 30.4849 1.14942 30.4969 1.16746 30.5092C1.60921 30.8181 2.1459 31 2.72461 31H28.2754C28.8539 31 29.3905 30.8182 29.8322 30.5095C29.8503 30.4971 29.8687 30.485 29.8861 30.4712C30.5609 29.9748 31 29.1755 31 28.2754V13.9258C31 12.4234 29.7777 11.2012 28.2754 11.2012ZM1.81641 28.2754V13.9258C1.81641 13.8689 1.82234 13.8133 1.83239 13.7593L11.1811 21.0293L1.83845 28.4719C1.8244 28.4086 1.81641 28.343 1.81641 28.2754ZM12.6547 22.1777L13.8216 23.0903C14.3157 23.4767 14.9079 23.67 15.5001 23.67C16.0923 23.67 16.6844 23.4767 17.1785 23.0903L18.3454 22.1777L27.1397 29.1836H3.86029L12.6547 22.1777ZM19.8189 21.0293L29.1676 13.7593C29.1777 13.8133 29.1836 13.8689 29.1836 13.9258V28.2754C29.1836 28.343 29.1756 28.4086 29.1616 28.4719L19.8189 21.0293ZM15.5 1.81641C18.7384 1.81641 21.373 4.45104 21.373 7.68945C21.373 10.9279 18.7384 13.5625 15.5 13.5625C12.2616 13.5625 9.62695 10.9279 9.62695 7.68945C9.62695 4.45104 12.2616 1.81641 15.5 1.81641ZM15.5 15.3789C17.6735 15.3789 19.6389 14.4723 21.0388 13.0176H27.1625L17.791 20.3053L16.0595 21.6595C15.7301 21.9172 15.2699 21.9171 14.9405 21.6595L13.207 20.3037L3.83746 13.0176H9.96117C11.3611 14.4723 13.3265 15.3789 15.5 15.3789Z" fill="white"/>
<path d="M15.5 11.5645C16.0016 11.5645 16.4082 11.1578 16.4082 10.6562V7.75C16.4082 7.24843 16.0016 6.8418 15.5 6.8418C14.9984 6.8418 14.5918 7.24843 14.5918 7.75V10.6562C14.5918 11.1578 14.9984 11.5645 15.5 11.5645Z" fill="white"/>
<path d="M15.5 5.75195C16.0016 5.75195 16.4082 5.34534 16.4082 4.84375C16.4082 4.34216 16.0016 3.93555 15.5 3.93555C14.9984 3.93555 14.5918 4.34216 14.5918 4.84375C14.5918 5.34534 14.9984 5.75195 15.5 5.75195Z" fill="white"/>
</svg>
