<svg width="37" height="26" viewBox="0 0 37 26" fill="none" xmlns="http://www.w3.org/2000/svg">
<path d="M35.1167 11.3538L32.6414 10.2825L30.5395 6.19225C29.9714 5.07229 28.8189 4.37434 27.561 4.38246H23.9414V3.35988C23.9414 1.50951 22.4644 0 20.614 0H3.31141C1.46104 0 0.000215941 1.51763 0.000215941 3.35988V19.0231C-0.0160154 20.1512 0.884823 21.0764 2.0129 21.0926C2.02102 21.0926 2.02913 21.0926 2.04536 21.0926H2.47549C2.47549 21.1738 2.46738 21.2062 2.46738 21.2549C2.45926 23.576 4.33398 25.4669 6.65506 25.4751C8.97614 25.4832 10.8671 23.6085 10.8752 21.2874C10.8752 21.2712 10.8752 21.263 10.8752 21.2468C10.8752 21.19 10.8752 21.1656 10.8671 21.0845H24.8504C24.8504 21.1656 24.8504 21.1981 24.8504 21.2468C24.8423 23.5679 26.717 25.4588 29.0381 25.4669C31.3591 25.4751 33.2501 23.6003 33.2582 21.2793C33.2582 21.263 33.2582 21.2549 33.2582 21.2387C33.2582 21.1819 33.2582 21.1575 33.2582 21.0764H34.3051C35.4332 21.0764 36.3503 20.1593 36.3503 19.0312C36.3503 19.0231 36.3503 19.015 36.3503 18.9988V13.2366C36.3665 12.4413 35.8796 11.6866 35.1167 11.3538ZM6.67941 23.86C5.25105 23.86 4.09863 22.7076 4.09863 21.2793C4.09863 19.8509 5.25105 18.6985 6.67941 18.6985C8.10776 18.6985 9.26019 19.8509 9.26019 21.2793C9.26019 22.6995 8.09965 23.86 6.67941 23.86ZM22.3183 19.4857H10.4857C9.80394 18.0005 8.31066 17.051 6.67941 17.0591C5.04004 17.051 3.55488 17.9924 2.87316 19.4857H2.04536C1.79378 19.4857 1.62335 19.2909 1.62335 19.0393V14.8598H22.3183V19.4857ZM22.3183 3.368V13.2366H1.62335V3.368C1.62335 2.41847 2.36187 1.63125 3.31141 1.63125H20.614C21.5635 1.63936 22.3264 2.41847 22.3183 3.35988V3.368ZM23.9414 6.01371H27.561C28.2021 6.00559 28.8027 6.35456 29.103 6.93078L30.7261 10.0715H23.9414V6.01371ZM29.0624 23.86C27.6341 23.86 26.4816 22.7076 26.4816 21.2793C26.4816 19.8509 27.6341 18.6985 29.0624 18.6985C30.4908 18.6985 31.6432 19.8509 31.6432 21.2793C31.6432 22.6995 30.4908 23.86 29.0624 23.86ZM34.7353 19.0393C34.7353 19.2909 34.5648 19.4857 34.3132 19.4857H32.8687C31.8867 17.3837 29.387 16.4748 27.2851 17.4568C26.3924 17.8707 25.6701 18.593 25.2562 19.4857H23.9414V11.6947H31.8948L34.4756 12.8309C34.6379 12.912 34.7434 13.0906 34.7353 13.2691V19.0393Z" fill="white"/>
</svg>
