<svg width="25" height="35" viewBox="0 0 25 35" fill="none" xmlns="http://www.w3.org/2000/svg">
<mask id="path-1-outside-1" maskUnits="userSpaceOnUse" x="-0.0527344" y="-1" width="25" height="37" fill="black">
<rect fill="white" x="-0.0527344" y="-1" width="25" height="37"/>
<path fill-rule="evenodd" clip-rule="evenodd" d="M23.987 6.84634C23.9867 6.83886 23.9865 6.83138 23.9859 6.82391C23.9838 6.79427 23.9809 6.76516 23.975 6.73632C23.975 6.73632 23.975 6.73632 23.975 6.73605C23.9691 6.70722 23.9608 6.67864 23.9515 6.65087C23.9491 6.64393 23.9467 6.63699 23.944 6.63004C23.9341 6.60361 23.9229 6.57771 23.9101 6.55261C23.9093 6.55127 23.9088 6.54994 23.908 6.5486C23.8941 6.52243 23.8781 6.4976 23.8607 6.4733C23.8564 6.46716 23.8519 6.46128 23.8473 6.45514C23.8289 6.43111 23.8097 6.40788 23.7881 6.38625L17.6021 0.200271C17.5805 0.178642 17.5572 0.159416 17.5332 0.140991C17.5271 0.136451 17.5209 0.131645 17.5148 0.127372C17.4905 0.110016 17.4659 0.0939939 17.44 0.0803755C17.4381 0.0793074 17.4363 0.0787733 17.4347 0.0777052C17.4101 0.0648879 17.3845 0.0539397 17.3586 0.0440596C17.3513 0.0413894 17.3444 0.0389861 17.3369 0.0365829C17.3092 0.0272369 17.2811 0.018959 17.252 0.0130844C17.2517 0.0130844 17.2515 0.0130844 17.2515 0.0130844C17.2229 0.00747679 17.1938 0.00427245 17.1644 0.00213623C17.157 0.0018692 17.1495 0.00133514 17.142 0.00106811C17.1343 0.000801088 17.1265 0 17.1188 0H1.63086C1.25328 0 0.947266 0.306014 0.947266 0.683592V29.9429C0.947266 30.3205 1.25328 30.6265 1.63086 30.6265H11.9227V34.3163C11.9227 34.5649 12.0578 34.794 12.2754 34.9145C12.4933 35.0349 12.759 35.0277 12.9697 34.8955L15.5732 33.2621L18.1767 34.8955C18.2875 34.9649 18.4139 34.9999 18.5402 34.9999C18.6539 34.9999 18.7679 34.9716 18.871 34.9147C19.0886 34.7943 19.2238 34.5652 19.2238 34.3163V30.6265H23.3045C23.6821 30.6265 23.9881 30.3205 23.9881 29.9429V6.86957C23.9881 6.86182 23.9873 6.85408 23.987 6.84634ZM17.8024 2.33409L21.6542 6.18598H17.8024V2.33409ZM11.5854 21.1142C11.5373 20.9836 11.4591 20.7703 11.4572 20.6829C11.5106 20.6167 11.696 20.4995 11.8094 20.4279C12.053 20.2741 12.3291 20.0995 12.5294 19.8266C12.7315 19.5507 12.8137 19.2322 12.8864 18.9513C12.9181 18.8284 12.9694 18.63 13.0132 18.555C13.0372 18.5499 13.0877 18.5427 13.1825 18.5427C13.2586 18.5427 13.3438 18.547 13.434 18.5515C13.5377 18.5566 13.6445 18.5619 13.7561 18.5619C14.0023 18.5619 14.2009 18.5342 14.3812 18.4741C14.696 18.3694 14.9478 18.1667 15.17 17.9878C15.2928 17.889 15.4984 17.7235 15.57 17.7133C15.6482 17.7235 15.8536 17.889 15.9764 17.9878C16.1986 18.1667 16.4507 18.3694 16.7655 18.4741C16.9457 18.5342 17.1441 18.5619 17.3906 18.5619C17.502 18.5619 17.609 18.5566 17.7124 18.5515C17.8026 18.547 17.8878 18.5427 17.9642 18.5427C18.059 18.5427 18.1092 18.5497 18.1335 18.555C18.1773 18.63 18.2285 18.8284 18.26 18.9513C18.3327 19.2322 18.4152 19.5507 18.6173 19.8266C18.8173 20.0995 19.0934 20.2739 19.3372 20.4279C19.4505 20.4998 19.6358 20.6167 19.6892 20.6829C19.6873 20.7703 19.6091 20.9836 19.5613 21.1142C19.4595 21.3911 19.3444 21.7051 19.3444 22.0531C19.3444 22.401 19.4595 22.715 19.561 22.9922C19.6091 23.1228 19.6873 23.3361 19.6892 23.4235C19.6358 23.4897 19.4505 23.6066 19.3372 23.6785C19.0934 23.8323 18.8173 24.0069 18.6173 24.2798C18.4152 24.5557 18.3327 24.8742 18.26 25.1551C18.2285 25.2777 18.177 25.4764 18.1335 25.5514C18.1092 25.5565 18.059 25.5637 17.9642 25.5637C17.8878 25.5637 17.8026 25.5594 17.7124 25.5549C17.609 25.5498 17.502 25.5445 17.3906 25.5445C17.1441 25.5445 16.9457 25.5722 16.7655 25.6323C16.4507 25.737 16.1986 25.9399 15.9764 26.1186C15.8555 26.2163 15.6536 26.3784 15.5732 26.3928C15.4928 26.3784 15.2912 26.2163 15.1703 26.1186C14.9478 25.9399 14.696 25.737 14.3812 25.6323C14.2009 25.5722 14.0023 25.5445 13.7561 25.5445C13.6447 25.5445 13.5377 25.5498 13.434 25.5549C13.3441 25.5594 13.2589 25.5637 13.1825 25.5637C13.0877 25.5637 13.0375 25.5565 13.0132 25.5514C12.9694 25.4764 12.9181 25.278 12.8864 25.1551C12.814 24.8742 12.7315 24.5557 12.5294 24.2798C12.3293 24.0069 12.0532 23.8323 11.8094 23.6785C11.6962 23.6069 11.5109 23.4897 11.4575 23.4235C11.4594 23.3364 11.5376 23.1228 11.5854 22.9922C11.6871 22.7153 11.8022 22.4013 11.8022 22.0533C11.8022 21.7051 11.6869 21.3911 11.5854 21.1142ZM17.8566 33.0805L15.9366 31.876C15.7145 31.7368 15.4319 31.7368 15.2098 31.876L13.2898 33.0805V26.9287C13.3625 26.9266 13.4338 26.9239 13.5029 26.9205C13.5935 26.9156 13.6789 26.9114 13.7561 26.9114C13.8773 26.9114 13.9291 26.9226 13.9491 26.9293C14.0306 26.9565 14.1871 27.0825 14.3128 27.1837C14.6319 27.4406 15.029 27.7603 15.5732 27.7603C16.1174 27.7603 16.5145 27.4406 16.8336 27.1837C16.9594 27.0825 17.1158 26.9565 17.197 26.9295C17.2173 26.9229 17.2691 26.9116 17.3903 26.9116C17.4675 26.9116 17.553 26.9159 17.6435 26.9205C17.7126 26.9239 17.7839 26.9269 17.8563 26.9287V33.0805H17.8566ZM19.2238 29.2594V26.3779C19.427 26.1017 19.5119 25.7749 19.5837 25.4972C19.6214 25.3514 19.6729 25.1519 19.7199 25.0881C19.7666 25.024 19.9405 24.9143 20.0673 24.8342C20.4037 24.6216 20.8225 24.357 20.9888 23.8566C21.1533 23.3628 20.9821 22.8963 20.8446 22.5214C20.7821 22.3513 20.7114 22.1583 20.7114 22.0531C20.7114 21.9479 20.7821 21.7551 20.8446 21.585C20.9821 21.2101 21.1533 20.7433 20.9888 20.2496C20.8225 19.7494 20.4037 19.4848 20.0673 19.2722C19.9405 19.1921 19.7666 19.0821 19.7199 19.0186C19.6729 18.9545 19.6214 18.755 19.5837 18.6092C19.4854 18.2287 19.3631 17.755 18.9444 17.4479C18.6112 17.2038 18.2253 17.1755 17.9639 17.1755C17.8534 17.1755 17.7466 17.1809 17.6435 17.1862C17.553 17.1907 17.4675 17.195 17.3906 17.195C17.2691 17.195 17.2173 17.1838 17.1973 17.1771C17.1161 17.1502 16.9596 17.0241 16.8338 16.9226C16.5145 16.666 16.1174 16.3464 15.5732 16.3464C15.0293 16.3464 14.6319 16.666 14.3128 16.9226C14.1871 17.0239 14.0306 17.1502 13.9494 17.1771C13.9294 17.1838 13.8773 17.195 13.7561 17.195C13.6792 17.195 13.5935 17.1907 13.5029 17.1859C13.3999 17.1809 13.2933 17.1755 13.1825 17.1755C12.9213 17.1755 12.5355 17.2038 12.2025 17.4479C11.7835 17.755 11.661 18.2287 11.5627 18.6092C11.5251 18.755 11.4735 18.9545 11.4268 19.0183C11.3798 19.0821 11.206 19.1921 11.0791 19.2722C10.7427 19.4848 10.3242 19.7494 10.1576 20.2496C9.99312 20.7436 10.1643 21.2101 10.3018 21.585C10.3643 21.7551 10.435 21.9479 10.435 22.0531C10.435 22.1583 10.3643 22.3513 10.3018 22.5214C10.1643 22.8963 9.99312 23.3628 10.1576 23.8568C10.3242 24.357 10.7429 24.6216 11.0791 24.8342C11.2062 24.9143 11.3798 25.0243 11.4268 25.0881C11.4735 25.1519 11.5251 25.3514 11.5627 25.4972C11.6345 25.7749 11.7197 26.102 11.9229 26.3779V29.2594H2.31445V1.36718H16.4352V6.86957C16.4352 7.24715 16.7412 7.55316 17.1188 7.55316H22.6209V29.2594H19.2238Z"/>
</mask>
<path fill-rule="evenodd" clip-rule="evenodd" d="M23.987 6.84634C23.9867 6.83886 23.9865 6.83138 23.9859 6.82391C23.9838 6.79427 23.9809 6.76516 23.975 6.73632C23.975 6.73632 23.975 6.73632 23.975 6.73605C23.9691 6.70722 23.9608 6.67864 23.9515 6.65087C23.9491 6.64393 23.9467 6.63699 23.944 6.63004C23.9341 6.60361 23.9229 6.57771 23.9101 6.55261C23.9093 6.55127 23.9088 6.54994 23.908 6.5486C23.8941 6.52243 23.8781 6.4976 23.8607 6.4733C23.8564 6.46716 23.8519 6.46128 23.8473 6.45514C23.8289 6.43111 23.8097 6.40788 23.7881 6.38625L17.6021 0.200271C17.5805 0.178642 17.5572 0.159416 17.5332 0.140991C17.5271 0.136451 17.5209 0.131645 17.5148 0.127372C17.4905 0.110016 17.4659 0.0939939 17.44 0.0803755C17.4381 0.0793074 17.4363 0.0787733 17.4347 0.0777052C17.4101 0.0648879 17.3845 0.0539397 17.3586 0.0440596C17.3513 0.0413894 17.3444 0.0389861 17.3369 0.0365829C17.3092 0.0272369 17.2811 0.018959 17.252 0.0130844C17.2517 0.0130844 17.2515 0.0130844 17.2515 0.0130844C17.2229 0.00747679 17.1938 0.00427245 17.1644 0.00213623C17.157 0.0018692 17.1495 0.00133514 17.142 0.00106811C17.1343 0.000801088 17.1265 0 17.1188 0H1.63086C1.25328 0 0.947266 0.306014 0.947266 0.683592V29.9429C0.947266 30.3205 1.25328 30.6265 1.63086 30.6265H11.9227V34.3163C11.9227 34.5649 12.0578 34.794 12.2754 34.9145C12.4933 35.0349 12.759 35.0277 12.9697 34.8955L15.5732 33.2621L18.1767 34.8955C18.2875 34.9649 18.4139 34.9999 18.5402 34.9999C18.6539 34.9999 18.7679 34.9716 18.871 34.9147C19.0886 34.7943 19.2238 34.5652 19.2238 34.3163V30.6265H23.3045C23.6821 30.6265 23.9881 30.3205 23.9881 29.9429V6.86957C23.9881 6.86182 23.9873 6.85408 23.987 6.84634ZM17.8024 2.33409L21.6542 6.18598H17.8024V2.33409ZM11.5854 21.1142C11.5373 20.9836 11.4591 20.7703 11.4572 20.6829C11.5106 20.6167 11.696 20.4995 11.8094 20.4279C12.053 20.2741 12.3291 20.0995 12.5294 19.8266C12.7315 19.5507 12.8137 19.2322 12.8864 18.9513C12.9181 18.8284 12.9694 18.63 13.0132 18.555C13.0372 18.5499 13.0877 18.5427 13.1825 18.5427C13.2586 18.5427 13.3438 18.547 13.434 18.5515C13.5377 18.5566 13.6445 18.5619 13.7561 18.5619C14.0023 18.5619 14.2009 18.5342 14.3812 18.4741C14.696 18.3694 14.9478 18.1667 15.17 17.9878C15.2928 17.889 15.4984 17.7235 15.57 17.7133C15.6482 17.7235 15.8536 17.889 15.9764 17.9878C16.1986 18.1667 16.4507 18.3694 16.7655 18.4741C16.9457 18.5342 17.1441 18.5619 17.3906 18.5619C17.502 18.5619 17.609 18.5566 17.7124 18.5515C17.8026 18.547 17.8878 18.5427 17.9642 18.5427C18.059 18.5427 18.1092 18.5497 18.1335 18.555C18.1773 18.63 18.2285 18.8284 18.26 18.9513C18.3327 19.2322 18.4152 19.5507 18.6173 19.8266C18.8173 20.0995 19.0934 20.2739 19.3372 20.4279C19.4505 20.4998 19.6358 20.6167 19.6892 20.6829C19.6873 20.7703 19.6091 20.9836 19.5613 21.1142C19.4595 21.3911 19.3444 21.7051 19.3444 22.0531C19.3444 22.401 19.4595 22.715 19.561 22.9922C19.6091 23.1228 19.6873 23.3361 19.6892 23.4235C19.6358 23.4897 19.4505 23.6066 19.3372 23.6785C19.0934 23.8323 18.8173 24.0069 18.6173 24.2798C18.4152 24.5557 18.3327 24.8742 18.26 25.1551C18.2285 25.2777 18.177 25.4764 18.1335 25.5514C18.1092 25.5565 18.059 25.5637 17.9642 25.5637C17.8878 25.5637 17.8026 25.5594 17.7124 25.5549C17.609 25.5498 17.502 25.5445 17.3906 25.5445C17.1441 25.5445 16.9457 25.5722 16.7655 25.6323C16.4507 25.737 16.1986 25.9399 15.9764 26.1186C15.8555 26.2163 15.6536 26.3784 15.5732 26.3928C15.4928 26.3784 15.2912 26.2163 15.1703 26.1186C14.9478 25.9399 14.696 25.737 14.3812 25.6323C14.2009 25.5722 14.0023 25.5445 13.7561 25.5445C13.6447 25.5445 13.5377 25.5498 13.434 25.5549C13.3441 25.5594 13.2589 25.5637 13.1825 25.5637C13.0877 25.5637 13.0375 25.5565 13.0132 25.5514C12.9694 25.4764 12.9181 25.278 12.8864 25.1551C12.814 24.8742 12.7315 24.5557 12.5294 24.2798C12.3293 24.0069 12.0532 23.8323 11.8094 23.6785C11.6962 23.6069 11.5109 23.4897 11.4575 23.4235C11.4594 23.3364 11.5376 23.1228 11.5854 22.9922C11.6871 22.7153 11.8022 22.4013 11.8022 22.0533C11.8022 21.7051 11.6869 21.3911 11.5854 21.1142ZM17.8566 33.0805L15.9366 31.876C15.7145 31.7368 15.4319 31.7368 15.2098 31.876L13.2898 33.0805V26.9287C13.3625 26.9266 13.4338 26.9239 13.5029 26.9205C13.5935 26.9156 13.6789 26.9114 13.7561 26.9114C13.8773 26.9114 13.9291 26.9226 13.9491 26.9293C14.0306 26.9565 14.1871 27.0825 14.3128 27.1837C14.6319 27.4406 15.029 27.7603 15.5732 27.7603C16.1174 27.7603 16.5145 27.4406 16.8336 27.1837C16.9594 27.0825 17.1158 26.9565 17.197 26.9295C17.2173 26.9229 17.2691 26.9116 17.3903 26.9116C17.4675 26.9116 17.553 26.9159 17.6435 26.9205C17.7126 26.9239 17.7839 26.9269 17.8563 26.9287V33.0805H17.8566ZM19.2238 29.2594V26.3779C19.427 26.1017 19.5119 25.7749 19.5837 25.4972C19.6214 25.3514 19.6729 25.1519 19.7199 25.0881C19.7666 25.024 19.9405 24.9143 20.0673 24.8342C20.4037 24.6216 20.8225 24.357 20.9888 23.8566C21.1533 23.3628 20.9821 22.8963 20.8446 22.5214C20.7821 22.3513 20.7114 22.1583 20.7114 22.0531C20.7114 21.9479 20.7821 21.7551 20.8446 21.585C20.9821 21.2101 21.1533 20.7433 20.9888 20.2496C20.8225 19.7494 20.4037 19.4848 20.0673 19.2722C19.9405 19.1921 19.7666 19.0821 19.7199 19.0186C19.6729 18.9545 19.6214 18.755 19.5837 18.6092C19.4854 18.2287 19.3631 17.755 18.9444 17.4479C18.6112 17.2038 18.2253 17.1755 17.9639 17.1755C17.8534 17.1755 17.7466 17.1809 17.6435 17.1862C17.553 17.1907 17.4675 17.195 17.3906 17.195C17.2691 17.195 17.2173 17.1838 17.1973 17.1771C17.1161 17.1502 16.9596 17.0241 16.8338 16.9226C16.5145 16.666 16.1174 16.3464 15.5732 16.3464C15.0293 16.3464 14.6319 16.666 14.3128 16.9226C14.1871 17.0239 14.0306 17.1502 13.9494 17.1771C13.9294 17.1838 13.8773 17.195 13.7561 17.195C13.6792 17.195 13.5935 17.1907 13.5029 17.1859C13.3999 17.1809 13.2933 17.1755 13.1825 17.1755C12.9213 17.1755 12.5355 17.2038 12.2025 17.4479C11.7835 17.755 11.661 18.2287 11.5627 18.6092C11.5251 18.755 11.4735 18.9545 11.4268 19.0183C11.3798 19.0821 11.206 19.1921 11.0791 19.2722C10.7427 19.4848 10.3242 19.7494 10.1576 20.2496C9.99312 20.7436 10.1643 21.2101 10.3018 21.585C10.3643 21.7551 10.435 21.9479 10.435 22.0531C10.435 22.1583 10.3643 22.3513 10.3018 22.5214C10.1643 22.8963 9.99312 23.3628 10.1576 23.8568C10.3242 24.357 10.7429 24.6216 11.0791 24.8342C11.2062 24.9143 11.3798 25.0243 11.4268 25.0881C11.4735 25.1519 11.5251 25.3514 11.5627 25.4972C11.6345 25.7749 11.7197 26.102 11.9229 26.3779V29.2594H2.31445V1.36718H16.4352V6.86957C16.4352 7.24715 16.7412 7.55316 17.1188 7.55316H22.6209V29.2594H19.2238Z" fill="white"/>
<path fill-rule="evenodd" clip-rule="evenodd" d="M23.987 6.84634C23.9867 6.83886 23.9865 6.83138 23.9859 6.82391C23.9838 6.79427 23.9809 6.76516 23.975 6.73632C23.975 6.73632 23.975 6.73632 23.975 6.73605C23.9691 6.70722 23.9608 6.67864 23.9515 6.65087C23.9491 6.64393 23.9467 6.63699 23.944 6.63004C23.9341 6.60361 23.9229 6.57771 23.9101 6.55261C23.9093 6.55127 23.9088 6.54994 23.908 6.5486C23.8941 6.52243 23.8781 6.4976 23.8607 6.4733C23.8564 6.46716 23.8519 6.46128 23.8473 6.45514C23.8289 6.43111 23.8097 6.40788 23.7881 6.38625L17.6021 0.200271C17.5805 0.178642 17.5572 0.159416 17.5332 0.140991C17.5271 0.136451 17.5209 0.131645 17.5148 0.127372C17.4905 0.110016 17.4659 0.0939939 17.44 0.0803755C17.4381 0.0793074 17.4363 0.0787733 17.4347 0.0777052C17.4101 0.0648879 17.3845 0.0539397 17.3586 0.0440596C17.3513 0.0413894 17.3444 0.0389861 17.3369 0.0365829C17.3092 0.0272369 17.2811 0.018959 17.252 0.0130844C17.2517 0.0130844 17.2515 0.0130844 17.2515 0.0130844C17.2229 0.00747679 17.1938 0.00427245 17.1644 0.00213623C17.157 0.0018692 17.1495 0.00133514 17.142 0.00106811C17.1343 0.000801088 17.1265 0 17.1188 0H1.63086C1.25328 0 0.947266 0.306014 0.947266 0.683592V29.9429C0.947266 30.3205 1.25328 30.6265 1.63086 30.6265H11.9227V34.3163C11.9227 34.5649 12.0578 34.794 12.2754 34.9145C12.4933 35.0349 12.759 35.0277 12.9697 34.8955L15.5732 33.2621L18.1767 34.8955C18.2875 34.9649 18.4139 34.9999 18.5402 34.9999C18.6539 34.9999 18.7679 34.9716 18.871 34.9147C19.0886 34.7943 19.2238 34.5652 19.2238 34.3163V30.6265H23.3045C23.6821 30.6265 23.9881 30.3205 23.9881 29.9429V6.86957C23.9881 6.86182 23.9873 6.85408 23.987 6.84634ZM17.8024 2.33409L21.6542 6.18598H17.8024V2.33409ZM11.5854 21.1142C11.5373 20.9836 11.4591 20.7703 11.4572 20.6829C11.5106 20.6167 11.696 20.4995 11.8094 20.4279C12.053 20.2741 12.3291 20.0995 12.5294 19.8266C12.7315 19.5507 12.8137 19.2322 12.8864 18.9513C12.9181 18.8284 12.9694 18.63 13.0132 18.555C13.0372 18.5499 13.0877 18.5427 13.1825 18.5427C13.2586 18.5427 13.3438 18.547 13.434 18.5515C13.5377 18.5566 13.6445 18.5619 13.7561 18.5619C14.0023 18.5619 14.2009 18.5342 14.3812 18.4741C14.696 18.3694 14.9478 18.1667 15.17 17.9878C15.2928 17.889 15.4984 17.7235 15.57 17.7133C15.6482 17.7235 15.8536 17.889 15.9764 17.9878C16.1986 18.1667 16.4507 18.3694 16.7655 18.4741C16.9457 18.5342 17.1441 18.5619 17.3906 18.5619C17.502 18.5619 17.609 18.5566 17.7124 18.5515C17.8026 18.547 17.8878 18.5427 17.9642 18.5427C18.059 18.5427 18.1092 18.5497 18.1335 18.555C18.1773 18.63 18.2285 18.8284 18.26 18.9513C18.3327 19.2322 18.4152 19.5507 18.6173 19.8266C18.8173 20.0995 19.0934 20.2739 19.3372 20.4279C19.4505 20.4998 19.6358 20.6167 19.6892 20.6829C19.6873 20.7703 19.6091 20.9836 19.5613 21.1142C19.4595 21.3911 19.3444 21.7051 19.3444 22.0531C19.3444 22.401 19.4595 22.715 19.561 22.9922C19.6091 23.1228 19.6873 23.3361 19.6892 23.4235C19.6358 23.4897 19.4505 23.6066 19.3372 23.6785C19.0934 23.8323 18.8173 24.0069 18.6173 24.2798C18.4152 24.5557 18.3327 24.8742 18.26 25.1551C18.2285 25.2777 18.177 25.4764 18.1335 25.5514C18.1092 25.5565 18.059 25.5637 17.9642 25.5637C17.8878 25.5637 17.8026 25.5594 17.7124 25.5549C17.609 25.5498 17.502 25.5445 17.3906 25.5445C17.1441 25.5445 16.9457 25.5722 16.7655 25.6323C16.4507 25.737 16.1986 25.9399 15.9764 26.1186C15.8555 26.2163 15.6536 26.3784 15.5732 26.3928C15.4928 26.3784 15.2912 26.2163 15.1703 26.1186C14.9478 25.9399 14.696 25.737 14.3812 25.6323C14.2009 25.5722 14.0023 25.5445 13.7561 25.5445C13.6447 25.5445 13.5377 25.5498 13.434 25.5549C13.3441 25.5594 13.2589 25.5637 13.1825 25.5637C13.0877 25.5637 13.0375 25.5565 13.0132 25.5514C12.9694 25.4764 12.9181 25.278 12.8864 25.1551C12.814 24.8742 12.7315 24.5557 12.5294 24.2798C12.3293 24.0069 12.0532 23.8323 11.8094 23.6785C11.6962 23.6069 11.5109 23.4897 11.4575 23.4235C11.4594 23.3364 11.5376 23.1228 11.5854 22.9922C11.6871 22.7153 11.8022 22.4013 11.8022 22.0533C11.8022 21.7051 11.6869 21.3911 11.5854 21.1142ZM17.8566 33.0805L15.9366 31.876C15.7145 31.7368 15.4319 31.7368 15.2098 31.876L13.2898 33.0805V26.9287C13.3625 26.9266 13.4338 26.9239 13.5029 26.9205C13.5935 26.9156 13.6789 26.9114 13.7561 26.9114C13.8773 26.9114 13.9291 26.9226 13.9491 26.9293C14.0306 26.9565 14.1871 27.0825 14.3128 27.1837C14.6319 27.4406 15.029 27.7603 15.5732 27.7603C16.1174 27.7603 16.5145 27.4406 16.8336 27.1837C16.9594 27.0825 17.1158 26.9565 17.197 26.9295C17.2173 26.9229 17.2691 26.9116 17.3903 26.9116C17.4675 26.9116 17.553 26.9159 17.6435 26.9205C17.7126 26.9239 17.7839 26.9269 17.8563 26.9287V33.0805H17.8566ZM19.2238 29.2594V26.3779C19.427 26.1017 19.5119 25.7749 19.5837 25.4972C19.6214 25.3514 19.6729 25.1519 19.7199 25.0881C19.7666 25.024 19.9405 24.9143 20.0673 24.8342C20.4037 24.6216 20.8225 24.357 20.9888 23.8566C21.1533 23.3628 20.9821 22.8963 20.8446 22.5214C20.7821 22.3513 20.7114 22.1583 20.7114 22.0531C20.7114 21.9479 20.7821 21.7551 20.8446 21.585C20.9821 21.2101 21.1533 20.7433 20.9888 20.2496C20.8225 19.7494 20.4037 19.4848 20.0673 19.2722C19.9405 19.1921 19.7666 19.0821 19.7199 19.0186C19.6729 18.9545 19.6214 18.755 19.5837 18.6092C19.4854 18.2287 19.3631 17.755 18.9444 17.4479C18.6112 17.2038 18.2253 17.1755 17.9639 17.1755C17.8534 17.1755 17.7466 17.1809 17.6435 17.1862C17.553 17.1907 17.4675 17.195 17.3906 17.195C17.2691 17.195 17.2173 17.1838 17.1973 17.1771C17.1161 17.1502 16.9596 17.0241 16.8338 16.9226C16.5145 16.666 16.1174 16.3464 15.5732 16.3464C15.0293 16.3464 14.6319 16.666 14.3128 16.9226C14.1871 17.0239 14.0306 17.1502 13.9494 17.1771C13.9294 17.1838 13.8773 17.195 13.7561 17.195C13.6792 17.195 13.5935 17.1907 13.5029 17.1859C13.3999 17.1809 13.2933 17.1755 13.1825 17.1755C12.9213 17.1755 12.5355 17.2038 12.2025 17.4479C11.7835 17.755 11.661 18.2287 11.5627 18.6092C11.5251 18.755 11.4735 18.9545 11.4268 19.0183C11.3798 19.0821 11.206 19.1921 11.0791 19.2722C10.7427 19.4848 10.3242 19.7494 10.1576 20.2496C9.99312 20.7436 10.1643 21.2101 10.3018 21.585C10.3643 21.7551 10.435 21.9479 10.435 22.0531C10.435 22.1583 10.3643 22.3513 10.3018 22.5214C10.1643 22.8963 9.99312 23.3628 10.1576 23.8568C10.3242 24.357 10.7429 24.6216 11.0791 24.8342C11.2062 24.9143 11.3798 25.0243 11.4268 25.0881C11.4735 25.1519 11.5251 25.3514 11.5627 25.4972C11.6345 25.7749 11.7197 26.102 11.9229 26.3779V29.2594H2.31445V1.36718H16.4352V6.86957C16.4352 7.24715 16.7412 7.55316 17.1188 7.55316H22.6209V29.2594H19.2238Z" stroke="white" stroke-width="0.2" mask="url(#path-1-outside-1)"/>
<path d="M4.97119 7.60273H13.7783C14.1833 7.60273 14.5119 7.27435 14.5119 6.86914C14.5119 6.46393 14.1833 6.13555 13.7783 6.13555H4.97119C4.566 6.13555 4.2376 6.46395 4.2376 6.86914C4.2376 7.27435 4.56628 7.60273 4.97119 7.60273Z" fill="white" stroke="white" stroke-width="0.1"/>
<path d="M20.0407 9.58672H4.97119C4.566 9.58672 4.2376 9.91512 4.2376 10.3203C4.2376 10.7255 4.566 11.0539 4.97119 11.0539H20.0407C20.4459 11.0539 20.7743 10.7255 20.7743 10.3203C20.7743 9.91512 20.4459 9.58672 20.0407 9.58672Z" fill="white" stroke="white" stroke-width="0.1"/>
<path d="M17.3063 13.0369H4.97119C4.56599 13.0369 4.2376 13.3656 4.2376 13.7705C4.2376 14.1757 4.566 14.5041 4.97119 14.5041H17.3063C17.7115 14.5041 18.0399 14.1757 18.0399 13.7705C18.0399 13.3656 17.7115 13.0369 17.3063 13.0369Z" fill="white" stroke="white" stroke-width="0.1"/>
</svg>
