<svg width="35" height="24" viewBox="0 0 35 24" fill="none" xmlns="http://www.w3.org/2000/svg">
<path d="M3.34766 4.74599L3.348 4.74597C3.39093 4.74392 3.43433 4.74273 3.47814 4.74273H24.2605C24.9001 2.49839 26.983 0.85 29.4465 0.85C32.4166 0.85 34.8349 3.24654 34.8349 6.19523C34.8349 8.67161 33.1287 10.7569 30.8237 11.362V20.8474C30.8237 22.2866 29.6437 23.4551 28.1955 23.4551H3.47814C2.03 23.4551 0.85 22.2866 0.85 20.8474V7.35046C0.85 6.60868 1.16425 5.93917 1.66589 5.46462M3.34766 4.74599L1.94535 5.42164L1.85278 5.30361C1.82578 5.32478 1.79866 5.34674 1.77172 5.36972L1.77139 5.37001L1.75816 5.38137L1.75793 5.38156C1.7312 5.4046 1.70467 5.42831 1.67848 5.45274M3.34766 4.74599C3.3366 4.74655 3.32124 4.74774 3.31012 4.7486C3.30521 4.74898 3.30112 4.7493 3.29861 4.74947L3.29849 4.74947M3.34766 4.74599L3.29849 4.74947M1.66589 5.46462C1.66691 5.46366 1.66793 5.46269 1.66895 5.46173M1.66589 5.46462C1.66557 5.46495 1.66528 5.46526 1.66501 5.46554L1.66358 5.4671C1.66464 5.46597 1.66649 5.46406 1.66895 5.46173M1.66589 5.46462C1.66739 5.46306 1.66939 5.46105 1.6718 5.45878C1.67473 5.45602 1.67738 5.4537 1.67848 5.45274M1.66895 5.46173C1.66937 5.46133 1.66981 5.46092 1.67027 5.4605L1.67026 5.46049L1.66895 5.46173ZM1.67848 5.45274C1.6782 5.45301 1.67791 5.45328 1.67763 5.45354L1.67762 5.45354L1.67642 5.45469C1.67684 5.45428 1.67725 5.4539 1.67763 5.45355C1.67913 5.45216 1.68006 5.45138 1.67897 5.45232C1.67889 5.45239 1.67873 5.45254 1.67848 5.45274ZM1.94961 5.23121C1.92355 5.24982 1.89736 5.26908 1.87136 5.28909M1.94961 5.23121L2.0368 5.35326L1.94923 5.23147L1.94961 5.23121ZM1.94961 5.23121L1.97487 5.21335L1.97503 5.21324C1.99983 5.196 2.02481 5.17933 2.04985 5.16317M1.87136 5.28909L2.04985 5.16317M1.87136 5.28909C1.87135 5.28909 1.87133 5.2891 1.87132 5.28911L1.87136 5.28909ZM2.04985 5.16317C2.06043 5.15631 2.07114 5.14948 2.08192 5.14275M2.04985 5.16317L2.08192 5.14275M2.08192 5.14275C2.10579 5.12776 2.1297 5.11341 2.15342 5.0996L2.15344 5.09959C2.16621 5.09216 2.1791 5.08479 2.19216 5.07751C2.19219 5.07749 2.19222 5.07748 2.19225 5.07746L2.08192 5.14275ZM3.29849 4.74947C3.29538 4.74969 3.2922 4.7499 3.28897 4.75012M3.29849 4.74947L3.28897 4.75012M3.09235 4.77109L3.0925 4.77107C3.11125 4.76832 3.1305 4.76604 3.14729 4.76404C3.15145 4.76355 3.15546 4.76307 3.15927 4.76261C3.15928 4.76261 3.15928 4.76261 3.15928 4.76261L3.09235 4.77109ZM3.09235 4.77109C3.07466 4.77371 3.05657 4.77685 3.04081 4.77959C3.03644 4.78034 3.03224 4.78107 3.02828 4.78175L3.02799 4.7818M3.09235 4.77109L3.02799 4.7818M3.02799 4.7818C3.02417 4.78246 3.02012 4.78316 3.0159 4.78388C3.00097 4.78643 2.98394 4.78934 2.96746 4.79255L2.96715 4.79261L3.02799 4.7818ZM2.84363 4.82004L2.84379 4.82C2.86141 4.81568 2.87907 4.81175 2.8949 4.80823C2.89703 4.80776 2.89914 4.80729 2.9012 4.80683C2.90123 4.80682 2.90127 4.80682 2.90131 4.80681L2.84363 4.82004ZM2.84363 4.82004C2.82312 4.82509 2.80281 4.83065 2.78461 4.83563C2.78222 4.83628 2.77987 4.83692 2.77757 4.83755L2.77718 4.83766M2.84363 4.82004L2.77718 4.83766M2.77718 4.83766C2.7754 4.83815 2.77358 4.83865 2.77175 4.83916C2.75625 4.84343 2.73917 4.84813 2.7221 4.8532L2.72204 4.85322M2.77718 4.83766L2.72204 4.85322M2.72204 4.85322C2.69902 4.86006 2.67658 4.86735 2.65579 4.87415L2.65555 4.87423M2.72204 4.85322L2.65555 4.87423M2.65555 4.87423L2.65488 4.87446C2.63846 4.87986 2.62044 4.88579 2.60234 4.89216L2.60233 4.89216M2.65555 4.87423L2.60233 4.89216M2.60233 4.89216C2.57975 4.9001 2.55775 4.90833 2.53645 4.9165L2.60233 4.89216ZM30.6737 9.88941L30.627 9.74686C32.1316 9.25397 33.2191 7.84766 33.219 6.19516C33.219 4.13406 31.5277 2.45491 29.4465 2.45491C27.8089 2.45491 26.4124 3.49514 25.8919 4.94338L30.6737 9.88941ZM30.6737 9.88941L30.627 9.74687C30.2553 9.86865 29.8587 9.93542 29.4465 9.93542M30.6737 9.88941L29.4465 9.93542M3.28897 4.75012C3.26753 4.75156 3.2435 4.75317 3.2196 4.7555L3.28897 4.75012ZM29.4465 9.93542C29.4296 9.93542 29.4157 9.93493 29.3994 9.93437M29.4465 9.93542L29.3994 9.93437M29.3994 9.93437C29.3883 9.93399 29.3761 9.93357 29.3611 9.93324M29.3994 9.93437L29.3611 9.93324M29.3611 9.93324C28.4546 9.91315 27.6265 9.57488 26.9854 9.0262M29.3611 9.93324L26.9854 9.0262M26.9854 9.0262C26.6645 8.75163 26.391 8.42484 26.1779 8.0591M26.9854 9.0262L26.1779 8.0591M26.1779 8.0591C25.8583 7.5104 25.6744 6.87514 25.6739 6.19754M26.1779 8.0591L25.6739 6.19754M25.6739 6.19754L25.6739 6.19516C25.6739 6.19456 25.6739 6.19396 25.6739 6.19335C25.6741 5.75502 25.7514 5.33451 25.8919 4.9434L25.6739 6.19754ZM3.06764 4.92717C3.08314 4.92448 3.09864 4.92179 3.11426 4.91949L3.06764 4.92717ZM3.06764 4.92717C3.06296 4.92798 3.05828 4.9288 3.0536 4.9296L3.06764 4.92717ZM1.77186 5.57086C1.29691 6.01873 1 6.6506 1 7.35046V20.8474C1 22.2026 2.11167 23.3051 3.47814 23.3051H28.1955C29.562 23.3051 30.6737 22.2026 30.6737 20.8474V11.245C32.9718 10.6956 34.6849 8.64068 34.6849 6.19523C34.6849 3.33055 32.3349 1 29.4465 1C27.0115 1 24.9593 2.6564 24.375 4.89273L1.77186 5.57086ZM29.2079 20.6974H29.2078V20.8474C29.2078 21.399 28.7547 21.8501 28.1955 21.8501H3.47814C2.91895 21.8501 2.46582 21.399 2.46582 20.8474V7.35046C2.46582 7.33944 2.46601 7.32847 2.46638 7.31754L13.1328 16.6146C13.904 17.2869 14.8707 17.6226 15.8369 17.6225C16.8028 17.6225 17.7698 17.2867 18.541 16.6146L18.4424 16.5015L18.541 16.6146L25.8915 10.2077C26.7851 10.9876 27.9403 11.4786 29.2079 11.5337V20.6974ZM14.1985 15.4083L3.80349 6.34764H24.0604C24.0877 7.30999 24.3738 8.209 24.8503 8.97984L17.4751 15.4083C16.5415 16.2221 15.1323 16.2222 14.1985 15.4083ZM25.6738 6.19027C25.6738 6.18989 25.6738 6.19022 25.6738 6.19097L25.6738 6.19027Z" fill="white" stroke="white" stroke-width="0.3"/>
<path d="M28.9378 5.19079C28.8775 5.22926 28.8087 5.24839 28.7352 5.24839C28.6072 5.24839 28.5019 5.18846 28.4267 5.089L28.9378 5.19079ZM28.9378 5.19079V7.22256V8.1776C28.9378 8.32006 29.0153 8.42768 29.1328 8.49509M28.9378 5.19079L29.1328 8.49509M29.1328 8.49509C29.1939 8.53028 29.2601 8.5527 29.3273 8.56649L29.3274 8.56652C29.3801 8.57726 29.4364 8.58371 29.4972 8.58371C29.6276 8.58371 29.7493 8.55624 29.857 8.49585M29.1328 8.49509L28.359 4.96807C28.3349 4.90835 28.3207 4.84347 28.3207 4.77358C28.3207 4.59789 28.3955 4.45245 28.5422 4.35696L29.2786 3.79997C29.3541 3.73872 29.4432 3.70547 29.5414 3.70547C29.6623 3.70547 29.7753 3.73866 29.876 3.80528M29.857 8.49585C29.9757 8.42938 30.0565 8.32206 30.0565 8.1776V4.26777M29.857 8.49585C29.857 8.49586 29.857 8.49588 29.857 8.49589L29.7837 8.365M29.857 8.49585L29.7837 8.365M30.0565 4.26777H30.0567V4.11777C30.0567 3.9815 29.9836 3.87639 29.876 3.80528M30.0565 4.26777H29.9067H29.9065M30.0565 4.26777V4.11777H29.9067L29.9065 4.26777M29.876 3.80528C29.876 3.80526 29.8759 3.80524 29.8759 3.80522L29.7932 3.93037L29.876 3.80528ZM29.9065 4.26777V8.1776C29.9065 8.25675 29.8655 8.31919 29.7837 8.365M29.9065 4.26777L29.3574 8.41955C29.4009 8.42842 29.4472 8.43371 29.4972 8.43371C29.6063 8.43371 29.7019 8.41087 29.7837 8.365M28.359 4.96809C28.375 5.00776 28.3964 5.04901 28.4266 5.08892L28.359 4.96809Z" fill="white" stroke="white" stroke-width="0.3"/>
</svg>
