<svg width="35" height="27" viewBox="0 0 35 27" fill="none" xmlns="http://www.w3.org/2000/svg">
<mask id="path-1-inside-1" fill="white">
<path fill-rule="evenodd" clip-rule="evenodd" d="M1.13391 0.270508H21.3553C21.9816 0.270508 22.4892 0.778145 22.4892 1.40438V5.90227H30.6912C31.1156 5.90227 31.5046 6.13927 31.6992 6.51682L34.8742 12.6778C34.9569 12.8384 35 13.0164 35 13.1971V22.344C35 22.9703 34.4924 23.4779 33.8661 23.4779H32.0543C31.5534 25.3478 29.8441 26.7284 27.8185 26.7284C25.793 26.7284 24.0837 25.3475 23.5827 23.4778H12.4756C11.9747 25.3477 10.2654 26.7284 8.23982 26.7284C6.21426 26.7284 4.50504 25.3475 4.00404 23.4778H1.13391C0.507603 23.4778 3.05176e-05 22.9702 3.05176e-05 22.344V1.40445C3.05176e-05 0.778145 0.507671 0.270508 1.13391 0.270508ZM32.0543 21.21C31.5534 19.3401 29.8441 17.9595 27.8185 17.9595C25.7931 17.9595 24.0838 19.3403 23.5828 21.21H22.4892V14.3687H32.7322V21.21H32.0543ZM32.0255 12.1009H22.4892V8.17009H29.9999L32.0255 12.1009ZM12.4756 21.21H20.2213V2.53833H2.26778V21.21H4.00402C4.50496 19.3403 6.21401 17.9595 8.23982 17.9595C10.2657 17.9595 11.9747 19.3401 12.4756 21.21ZM27.8185 24.461C28.9857 24.461 29.9351 23.5115 29.9351 22.3444C29.9351 21.1772 28.9857 20.2274 27.8185 20.2274C26.6514 20.2274 25.7019 21.1772 25.7019 22.3444C25.7019 23.5115 26.6514 24.461 27.8185 24.461ZM8.23982 24.461C9.40699 24.461 10.3564 23.5115 10.3564 22.3444C10.3564 21.1772 9.40699 20.2274 8.23982 20.2274C7.07266 20.2274 6.1228 21.1772 6.1228 22.3444C6.1228 23.5115 7.07266 24.461 8.23982 24.461ZM5.6914 7.19001C6.10757 6.72134 6.82453 6.67937 7.29211 7.09554L12.9133 12.0885L15.1433 9.82978C15.5833 9.38414 16.3014 9.37963 16.7467 9.81959C17.1923 10.2596 17.1968 10.9777 16.7569 11.4233L13.7713 14.447C13.5501 14.6712 13.2572 14.7846 12.964 14.7846C12.6956 14.7846 12.4269 14.6897 12.2118 14.4985L5.78629 8.79071C5.31796 8.37495 5.27564 7.65827 5.6914 7.19001Z"/>
</mask>
<path fill-rule="evenodd" clip-rule="evenodd" d="M1.13391 0.270508H21.3553C21.9816 0.270508 22.4892 0.778145 22.4892 1.40438V5.90227H30.6912C31.1156 5.90227 31.5046 6.13927 31.6992 6.51682L34.8742 12.6778C34.9569 12.8384 35 13.0164 35 13.1971V22.344C35 22.9703 34.4924 23.4779 33.8661 23.4779H32.0543C31.5534 25.3478 29.8441 26.7284 27.8185 26.7284C25.793 26.7284 24.0837 25.3475 23.5827 23.4778H12.4756C11.9747 25.3477 10.2654 26.7284 8.23982 26.7284C6.21426 26.7284 4.50504 25.3475 4.00404 23.4778H1.13391C0.507603 23.4778 3.05176e-05 22.9702 3.05176e-05 22.344V1.40445C3.05176e-05 0.778145 0.507671 0.270508 1.13391 0.270508ZM32.0543 21.21C31.5534 19.3401 29.8441 17.9595 27.8185 17.9595C25.7931 17.9595 24.0838 19.3403 23.5828 21.21H22.4892V14.3687H32.7322V21.21H32.0543ZM32.0255 12.1009H22.4892V8.17009H29.9999L32.0255 12.1009ZM12.4756 21.21H20.2213V2.53833H2.26778V21.21H4.00402C4.50496 19.3403 6.21401 17.9595 8.23982 17.9595C10.2657 17.9595 11.9747 19.3401 12.4756 21.21ZM27.8185 24.461C28.9857 24.461 29.9351 23.5115 29.9351 22.3444C29.9351 21.1772 28.9857 20.2274 27.8185 20.2274C26.6514 20.2274 25.7019 21.1772 25.7019 22.3444C25.7019 23.5115 26.6514 24.461 27.8185 24.461ZM8.23982 24.461C9.40699 24.461 10.3564 23.5115 10.3564 22.3444C10.3564 21.1772 9.40699 20.2274 8.23982 20.2274C7.07266 20.2274 6.1228 21.1772 6.1228 22.3444C6.1228 23.5115 7.07266 24.461 8.23982 24.461ZM5.6914 7.19001C6.10757 6.72134 6.82453 6.67937 7.29211 7.09554L12.9133 12.0885L15.1433 9.82978C15.5833 9.38414 16.3014 9.37963 16.7467 9.81959C17.1923 10.2596 17.1968 10.9777 16.7569 11.4233L13.7713 14.447C13.5501 14.6712 13.2572 14.7846 12.964 14.7846C12.6956 14.7846 12.4269 14.6897 12.2118 14.4985L5.78629 8.79071C5.31796 8.37495 5.27564 7.65827 5.6914 7.19001Z" fill="white"/>
<path d="M22.4892 5.90227V6.30227H22.0892V5.90227H22.4892ZM31.6992 6.51682L32.0547 6.33354L32.0548 6.33358L31.6992 6.51682ZM34.8742 12.6778L34.5186 12.8611L34.5186 12.861L34.8742 12.6778ZM32.0543 23.4779L31.668 23.3744L31.7474 23.0779H32.0543V23.4779ZM23.5827 23.4778V23.0778H23.8897L23.9691 23.3743L23.5827 23.4778ZM12.4756 23.4778L12.0893 23.3743L12.1687 23.0778H12.4756V23.4778ZM4.00404 23.4778V23.0778H4.31097L4.39041 23.3743L4.00404 23.4778ZM32.0543 21.21V21.61H31.7474L31.668 21.3136L32.0543 21.21ZM23.5828 21.21L23.9692 21.3135L23.8897 21.61H23.5828V21.21ZM22.4892 21.21V21.61H22.0892V21.21H22.4892ZM22.4892 14.3687H22.0892V13.9687H22.4892V14.3687ZM32.7322 14.3687V13.9687H33.1322V14.3687H32.7322ZM32.7322 21.21H33.1322V21.61H32.7322V21.21ZM32.0255 12.1009L32.381 11.9177L32.6816 12.5009H32.0255V12.1009ZM22.4892 12.1009V12.5009H22.0892V12.1009H22.4892ZM22.4892 8.17009H22.0892V7.77009H22.4892V8.17009ZM29.9999 8.17009V7.77009H30.2437L30.3554 7.98686L29.9999 8.17009ZM20.2213 21.21H20.6213V21.61H20.2213V21.21ZM12.4756 21.21V21.61H12.1687L12.0893 21.3135L12.4756 21.21ZM20.2213 2.53833V2.13833H20.6213V2.53833H20.2213ZM2.26778 2.53833H1.86778V2.13833H2.26778V2.53833ZM2.26778 21.21V21.61H1.86778V21.21H2.26778ZM4.00402 21.21L4.3904 21.3135L4.31096 21.61H4.00402V21.21ZM7.29211 7.09554L7.02647 7.3946L7.02617 7.39433L7.29211 7.09554ZM5.6914 7.19001L5.39229 6.92443L5.3923 6.92442L5.6914 7.19001ZM12.9133 12.0885L13.1979 12.3695L12.9314 12.6396L12.6477 12.3876L12.9133 12.0885ZM15.1433 9.82978L15.428 10.1108L15.428 10.1108L15.1433 9.82978ZM16.7467 9.81959L16.4657 10.1042L16.4656 10.1041L16.7467 9.81959ZM16.7569 11.4233L17.0415 11.7043L17.0415 11.7043L16.7569 11.4233ZM13.7713 14.447L13.4865 14.1661L13.4866 14.166L13.7713 14.447ZM12.2118 14.4985L12.4774 14.1994L12.4776 14.1996L12.2118 14.4985ZM5.78629 8.79071L6.05184 8.49158L6.05193 8.49166L5.78629 8.79071ZM21.3553 0.670508H1.13391V-0.129492H21.3553V0.670508ZM22.0892 1.40438C22.0892 0.999042 21.7607 0.670508 21.3553 0.670508V-0.129492C22.2025 -0.129492 22.8892 0.557247 22.8892 1.40438H22.0892ZM22.0892 5.90227V1.40438H22.8892V5.90227H22.0892ZM22.4892 5.50227H30.6912V6.30227H22.4892V5.50227ZM30.6912 5.50227C31.2654 5.50227 31.7915 5.8229 32.0547 6.33354L31.3437 6.70009C31.2176 6.45564 30.9659 6.30227 30.6912 6.30227V5.50227ZM32.0548 6.33358L35.2297 12.4945L34.5186 12.861L31.3436 6.70005L32.0548 6.33358ZM35.2297 12.4945C35.3418 12.7119 35.4 12.9529 35.4 13.1971H34.6C34.6 13.08 34.5721 12.9648 34.5186 12.8611L35.2297 12.4945ZM35.4 13.1971V22.344H34.6V13.1971H35.4ZM35.4 22.344C35.4 23.1912 34.7133 23.8779 33.8661 23.8779V23.0779C34.2715 23.0779 34.6 22.7494 34.6 22.344H35.4ZM33.8661 23.8779H32.0543V23.0779H33.8661V23.8779ZM27.8185 26.3284C29.6582 26.3284 31.2126 25.0741 31.668 23.3744L32.4407 23.5814C31.8942 25.6214 30.03 27.1284 27.8185 27.1284V26.3284ZM23.9691 23.3743C24.4245 25.0739 25.979 26.3284 27.8185 26.3284V27.1284C25.6071 27.1284 23.7429 25.6211 23.1964 23.5813L23.9691 23.3743ZM12.4756 23.0778H23.5827V23.8778H12.4756V23.0778ZM8.23982 26.3284C10.0795 26.3284 11.6339 25.0741 12.0893 23.3743L12.862 23.5813C12.3155 25.6214 10.4513 27.1284 8.23982 27.1284V26.3284ZM4.39041 23.3743C4.84583 25.0739 6.40021 26.3284 8.23982 26.3284V27.1284C6.02831 27.1284 4.16424 25.6212 3.61767 23.5814L4.39041 23.3743ZM1.13391 23.0778H4.00404V23.8778H1.13391V23.0778ZM0.400031 22.344C0.400031 22.7493 0.728531 23.0778 1.13391 23.0778V23.8778C0.286675 23.8778 -0.399969 23.1911 -0.399969 22.344H0.400031ZM0.400031 1.40445V22.344H-0.399969V1.40445H0.400031ZM1.13391 0.670508C0.728599 0.670508 0.400031 0.999045 0.400031 1.40445H-0.399969C-0.399969 0.557245 0.286744 -0.129492 1.13391 -0.129492V0.670508ZM31.668 21.3136C31.2126 19.6138 29.6582 18.3595 27.8185 18.3595V17.5595C30.03 17.5595 31.8942 19.0665 32.4407 21.1065L31.668 21.3136ZM27.8185 18.3595C25.979 18.3595 24.4246 19.6139 23.9692 21.3135L23.1964 21.1064C23.7431 19.0667 25.6071 17.5595 27.8185 17.5595V18.3595ZM23.5828 21.61H22.4892V20.81H23.5828V21.61ZM22.0892 21.21V14.3687H22.8892V21.21H22.0892ZM22.4892 13.9687H32.7322V14.7687H22.4892V13.9687ZM32.3322 21.21V14.3687H33.1322V21.21H32.3322ZM32.0543 20.81H32.7322V21.61H32.0543V20.81ZM32.0255 12.5009H22.4892V11.7009H32.0255V12.5009ZM22.0892 12.1009V8.17009H22.8892V12.1009H22.0892ZM29.9999 8.57009H22.4892V7.77009H29.9999V8.57009ZM31.6699 12.2841L29.6443 8.35332L30.3554 7.98686L32.381 11.9177L31.6699 12.2841ZM20.2213 21.61H12.4756V20.81H20.2213V21.61ZM20.6213 2.53833V21.21H19.8213V2.53833H20.6213ZM2.26778 2.13833H20.2213V2.93833H2.26778V2.13833ZM1.86778 21.21V2.53833H2.66778V21.21H1.86778ZM4.00402 21.61H2.26778V20.81H4.00402V21.61ZM8.23982 18.3595C6.39995 18.3595 4.84576 19.614 4.3904 21.3135L3.61765 21.1065C4.16416 19.0667 6.02806 17.5595 8.23982 17.5595V18.3595ZM12.0893 21.3135C11.6339 19.6137 10.0798 18.3595 8.23982 18.3595V17.5595C10.4516 17.5595 12.3155 19.0665 12.862 21.1065L12.0893 21.3135ZM30.3351 22.3444C30.3351 23.7325 29.2066 24.861 27.8185 24.861V24.061C28.7648 24.061 29.5351 23.2906 29.5351 22.3444H30.3351ZM27.8185 19.8274C29.2067 19.8274 30.3351 20.9564 30.3351 22.3444H29.5351C29.5351 21.398 28.7647 20.6274 27.8185 20.6274V19.8274ZM25.3019 22.3444C25.3019 20.9564 26.4303 19.8274 27.8185 19.8274V20.6274C26.8724 20.6274 26.1019 21.398 26.1019 22.3444H25.3019ZM27.8185 24.861C26.4304 24.861 25.3019 23.7325 25.3019 22.3444H26.1019C26.1019 23.2906 26.8723 24.061 27.8185 24.061V24.861ZM10.7564 22.3444C10.7564 23.7325 9.6279 24.861 8.23982 24.861V24.061C9.18608 24.061 9.95643 23.2906 9.95643 22.3444H10.7564ZM8.23982 19.8274C9.62801 19.8274 10.7564 20.9564 10.7564 22.3444H9.95643C9.95643 21.398 9.18597 20.6274 8.23982 20.6274V19.8274ZM5.7228 22.3444C5.7228 20.9563 6.85174 19.8274 8.23982 19.8274V20.6274C7.29357 20.6274 6.5228 21.3981 6.5228 22.3444H5.7228ZM8.23982 24.861C6.85184 24.861 5.7228 23.7326 5.7228 22.3444H6.5228C6.5228 23.2905 7.29347 24.061 8.23982 24.061V24.861ZM7.02617 7.39433C6.72381 7.12521 6.25993 7.15219 5.9905 7.4556L5.3923 6.92442C5.95522 6.29049 6.92525 6.23352 7.55805 6.79675L7.02617 7.39433ZM12.6477 12.3876L7.02647 7.3946L7.55775 6.79648L13.1789 11.7894L12.6477 12.3876ZM15.428 10.1108L13.1979 12.3695L12.6287 11.8075L14.8587 9.54875L15.428 10.1108ZM16.4656 10.1041C16.1775 9.81954 15.7127 9.82235 15.428 10.1108L14.8587 9.54875C15.4538 8.94593 16.4253 8.93972 17.0278 9.53505L16.4656 10.1041ZM16.4722 11.1423C16.757 10.8538 16.754 10.389 16.4657 10.1042L17.0277 9.53494C17.6306 10.1302 17.6366 11.1015 17.0415 11.7043L16.4722 11.1423ZM13.4866 14.166L16.4722 11.1423L17.0415 11.7043L14.0559 14.7281L13.4866 14.166ZM12.964 14.3846C13.1543 14.3846 13.3434 14.3112 13.4865 14.1661L14.056 14.728C13.7569 15.0312 13.3601 15.1846 12.964 15.1846V14.3846ZM12.4776 14.1996C12.6168 14.3234 12.79 14.3846 12.964 14.3846V15.1846C12.6012 15.1846 12.2369 15.0561 11.946 14.7973L12.4776 14.1996ZM6.05193 8.49166L12.4774 14.1994L11.9461 14.7975L5.52064 9.08977L6.05193 8.49166ZM5.99052 7.45559C5.72133 7.75877 5.74885 8.2226 6.05184 8.49158L5.52073 9.08985C4.88706 8.5273 4.82996 7.55778 5.39229 6.92443L5.99052 7.45559Z" fill="#66AC27" mask="url(#path-1-inside-1)"/>
</svg>
