<svg width="33" height="33" viewBox="0 0 33 33" fill="none" xmlns="http://www.w3.org/2000/svg">
<path d="M16.883 32.9262L32.3517 26.7387M16.883 32.9262L16.936 0.096728M16.883 32.9262C16.7601 32.9754 16.63 33 16.5 33C16.37 33 16.2399 32.9754 16.117 32.9262M16.883 32.9262L0.00631641 8.13842M32.3517 26.7387C32.7433 26.5821 33 26.2029 33 25.7812V8.24998C33 8.24457 32.9944 8.14576 32.9936 8.13842C32.955 7.78347 32.7345 7.46933 32.4048 7.31548L16.936 0.096728M32.3517 26.7387L32.2775 26.553C32.5931 26.4268 32.8 26.1211 32.8 25.7812V8.25376M32.3517 26.7387L32.2775 26.553L16.8087 32.7405L16.8086 32.7405C16.7096 32.7802 16.6048 32.8 16.5 32.8C16.3952 32.8 16.2904 32.7801 16.1913 32.7405L16.117 32.9262M16.936 0.096728L16.8514 0.277965C16.8515 0.277968 16.8515 0.27797 16.8515 0.277973L16.936 0.096728ZM32.8 8.25376L16.1484 0.277973M32.8 8.25376L32.8001 8.25587C32.8001 8.25481 32.8 8.25256 32.8 8.24998V8.25376ZM16.117 32.9262L16.1913 32.7405L0.722548 26.553L0.722521 26.553C0.406936 26.4268 0.2 26.1211 0.2 25.7812V8.2537M16.117 32.9262L0.64827 26.7387C0.256717 26.5821 0 26.2029 0 25.7812V8.24998C0 8.24457 0.00547852 8.14583 0.00631641 8.13842M0.2 8.2537L0.200018 8.2533L0.2006 8.24169L0.20253 8.20615L0.204607 8.17035L0.205354 8.15854L0.20543 8.15745M0.2 8.2537V8.24998C0.2 8.25249 0.199944 8.25467 0.199911 8.2557L0.2 8.2537ZM0.20543 8.15745C0.237351 7.87223 0.414949 7.62028 0.679673 7.49671L0.595096 7.31548M0.20543 8.15745C0.205333 8.15831 0.205238 8.15917 0.205144 8.16004M0.20543 8.15745L0.205526 8.15608M0.595096 7.31548L0.679686 7.49671L16.1484 0.277973M0.595096 7.31548C0.265482 7.46933 0.0449238 7.78341 0.00631641 8.13842M0.595096 7.31548L0.00631641 8.13842M16.1484 0.277973C16.1484 0.27797 16.1484 0.277968 16.1484 0.277965L16.0638 0.096728L16.1484 0.277973ZM0.205144 8.16004C0.20534 8.15822 0.205469 8.15676 0.205526 8.15608M0.205144 8.16004C0.205115 8.16031 0.205085 8.16059 0.205052 8.16088L0.205144 8.16004ZM0.205526 8.15608C0.205553 8.15575 0.205563 8.1556 0.205557 8.15567L0.20553 8.15601L0.205526 8.15608ZM32.7944 8.15622L32.7944 8.15752C32.7945 8.15835 32.7946 8.15918 32.7947 8.16001C32.7944 8.15697 32.7943 8.15502 32.7944 8.15622ZM16.5846 1.98798L16.5 1.94851L16.4154 1.98798L11.2158 4.41451L10.8088 4.60445L11.2223 4.77987L24.3387 10.3442L24.4145 10.3764L24.4911 10.3458L29.4484 8.36285L29.8773 8.19127L29.4587 7.99591L16.5846 1.98798ZM8.86371 5.58519L8.78173 5.55042L8.70103 5.58807L3.5413 7.99591L3.12266 8.19127L3.5516 8.36285L16.4257 13.5125L16.5 13.5422L16.5743 13.5125L21.7728 11.4331L22.2235 11.2528L21.7766 11.0633L8.86371 5.58519ZM2.13678 9.58745L1.8625 9.47773V9.77314V25.083V25.2184L1.98822 25.2687L15.3945 30.6312L15.6687 30.7409V30.4455V15.1356V15.0002L15.543 14.9499L2.13678 9.58745ZM17.3312 30.4456V30.741L17.6055 30.6313L31.0118 25.2687L31.1375 25.2184V25.083V9.77314V9.47773L30.8632 9.58745L17.457 14.9499L17.3312 15.0002V15.1356V30.4456Z" fill="white" stroke="#F5F7FA" stroke-width="0.4"/>
</svg>
