<svg width="31" height="31" viewBox="0 0 31 31" fill="none" xmlns="http://www.w3.org/2000/svg">
<path d="M14.188 31C11.5182 31 9.34424 28.8274 9.34424 26.1562C9.34424 25.6215 9.77824 25.1875 10.313 25.1875C10.8477 25.1875 11.2817 25.6215 11.2817 26.1562C11.2817 27.7593 12.5863 29.0625 14.188 29.0625C15.7896 29.0625 17.0942 27.7593 17.0942 26.1562C17.0942 25.6215 17.5282 25.1875 18.063 25.1875C18.5977 25.1875 19.0317 25.6215 19.0317 26.1562C19.0317 28.8274 16.858 31 14.188 31Z" fill="white"/>
<path d="M24.8443 27.125H3.53182C2.28541 27.125 1.27148 26.1111 1.27148 24.8647C1.27148 24.2031 1.55956 23.5769 2.0619 23.1466C2.09431 23.1183 2.12907 23.0925 2.16526 23.0691C4.06137 21.4144 5.14648 19.0339 5.14648 16.5203V12.9166C5.14648 7.93093 9.2036 3.875 14.1881 3.875C14.3948 3.875 16.0536 3.875 17.2958 4.31523C17.824 4.40297 18.1806 4.90296 18.0926 5.42991C18.0049 5.95685 17.4959 6.31351 16.978 6.22553C16.8746 6.20874 15.8728 5.8125 14.1881 5.8125C10.2719 5.8125 7.08398 8.99902 7.08398 12.9166V16.5203C7.08398 19.6411 5.716 22.5939 3.33434 24.6203C3.31494 24.636 3.29815 24.6501 3.27734 24.6643C3.24257 24.7083 3.20898 24.7755 3.20898 24.8647C3.20898 25.0402 3.35633 25.1875 3.53182 25.1875H24.8443C25.02 25.1875 25.1674 25.0402 25.1674 24.8647C25.1674 24.7741 25.1338 24.7083 25.0976 24.6643C25.0782 24.6501 25.0614 24.636 25.042 24.6203C22.659 22.5925 21.2924 19.6411 21.2924 16.5203V12.9166C21.2924 12.3818 21.7264 11.9478 22.2611 11.9478C22.7959 11.9478 23.2299 12.3818 23.2299 12.9166V16.5203C23.2299 19.0354 24.3162 21.417 26.2149 23.0731C26.2497 23.0963 26.2833 23.1209 26.3142 23.1481C26.8168 23.5769 27.1049 24.2031 27.1049 24.8647C27.1049 26.1111 26.091 27.125 24.8443 27.125Z" fill="white"/>
<path d="M23.2299 12.9166C19.6687 12.9166 16.7715 10.0196 16.7715 6.45841C16.7715 2.89726 19.6687 0 23.2299 0C26.791 0 29.6881 2.89726 29.6881 6.45841C29.6881 10.0196 26.791 12.9166 23.2299 12.9166ZM23.2299 1.9375C20.7368 1.9375 18.709 3.96535 18.709 6.45841C18.709 8.95124 20.7368 10.9791 23.2299 10.9791C25.7227 10.9791 27.7506 8.95124 27.7506 6.45841C27.7506 3.96535 25.7227 1.9375 23.2299 1.9375Z" fill="white"/>
</svg>
