<svg width="33" height="33" viewBox="0 0 33 33" fill="none" xmlns="http://www.w3.org/2000/svg">
<g clip-path="url(#clip0)">
<path d="M32.9936 8.13842C32.955 7.78347 32.7345 7.46933 32.4048 7.31548L16.936 0.096728C16.6596 -0.0322427 16.3403 -0.0322427 16.0638 0.096728L0.595096 7.31548C0.265482 7.46933 0.0449238 7.78341 0.00631641 8.13842C0.00547852 8.14583 0 8.24457 0 8.24998V25.7812C0 26.2029 0.256717 26.5821 0.64827 26.7387L16.117 32.9262C16.2399 32.9754 16.37 33 16.5 33C16.63 33 16.7601 32.9754 16.883 32.9262L32.3517 26.7387C32.7433 26.5821 33 26.2029 33 25.7812V8.24998C33 8.24457 32.9944 8.14576 32.9936 8.13842ZM16.5 2.16922L29.3741 8.17715L24.4168 10.1601L11.3004 4.59575L16.5 2.16922ZM8.78561 5.76931L21.6985 11.2474L16.5 13.3268L3.62587 8.17715L8.78561 5.76931ZM2.0625 9.77314L15.4688 15.1356V30.4455L2.0625 25.083V9.77314ZM17.5312 30.4456V15.1356L30.9375 9.77314V25.083L17.5312 30.4456Z" fill="white"/>
</g>
<defs>
<clipPath id="clip0">
<rect width="33" height="33" fill="white"/>
</clipPath>
</defs>
</svg>
