<svg width="13" height="16" viewBox="0 0 13 16" fill="none" xmlns="http://www.w3.org/2000/svg">
<path d="M6.08206 11.7718C5.9423 11.7718 5.87242 11.7013 5.73266 11.6308C5.62194 11.537 5.55245 11.4029 5.53936 11.2577C5.52627 11.1125 5.57066 10.9679 5.66279 10.8556L8.52789 7.33183C8.57377 7.2763 8.63008 7.23042 8.69355 7.19683C8.75701 7.16324 8.82639 7.1426 8.89776 7.13605C8.96914 7.12951 9.04114 7.1372 9.10957 7.1587C9.178 7.1802 9.2415 7.21508 9.29656 7.26135C9.35162 7.30763 9.39717 7.3644 9.43049 7.4284C9.4638 7.4924 9.48422 7.56239 9.49071 7.63437C9.4972 7.70636 9.4896 7.77893 9.46828 7.84794C9.44695 7.91695 9.41239 7.98105 9.36651 8.03658L6.50133 11.5603C6.44895 11.622 6.3849 11.6724 6.31289 11.7087C6.24089 11.7451 6.1624 11.7665 6.08206 11.7718Z" fill="black"/>
<path d="M8.94683 8.24792H0.561139C0.487437 8.24897 0.414297 8.23509 0.346003 8.20712C0.277709 8.17916 0.215658 8.13768 0.163538 8.08511C0.111418 8.03255 0.0703059 7.96997 0.0425777 7.9011C0.0148494 7.83222 0.00110885 7.75844 0.00214373 7.68411C-0.00473083 7.60834 0.00497135 7.53197 0.0306352 7.46042C0.056299 7.38886 0.0973074 7.32388 0.150657 7.27008C0.204007 7.21627 0.2684 7.17498 0.339349 7.1491C0.410298 7.12322 0.486004 7.11339 0.561139 7.12032H8.94683C9.02053 7.11928 9.09376 7.13313 9.16205 7.1611C9.23034 7.18906 9.29239 7.23057 9.34451 7.28313C9.39663 7.33569 9.43775 7.39825 9.46548 7.46713C9.4932 7.536 9.50694 7.60978 9.50591 7.68411C9.51278 7.75989 9.50308 7.83626 9.47742 7.90781C9.45175 7.97936 9.41074 8.04434 9.3574 8.09815C9.30404 8.15195 9.23965 8.19327 9.1687 8.21915C9.09775 8.24503 9.02196 8.25486 8.94683 8.24792Z" fill="black"/>
<path d="M8.94702 8.24735C8.86669 8.24208 8.78828 8.22064 8.71628 8.18433C8.64427 8.14803 8.58014 8.09757 8.52776 8.03591L5.66266 4.51217C5.56999 4.40002 5.52527 4.25534 5.53837 4.10996C5.55148 3.96458 5.62132 3.83039 5.73253 3.73694C5.84373 3.64348 5.98716 3.59842 6.13132 3.61164C6.27548 3.62485 6.40853 3.69527 6.5012 3.80742L9.36638 7.33116C9.45712 7.44411 9.50056 7.58831 9.48751 7.73309C9.47446 7.87787 9.40588 8.0118 9.29643 8.10639C9.22655 8.24734 9.08678 8.24735 8.94702 8.24735Z" fill="black"/>
<path d="M12.4412 16H1.95909C1.88539 16.001 1.81225 15.9871 1.74395 15.9592C1.67566 15.9312 1.61361 15.8897 1.56149 15.8372C1.50937 15.7846 1.46826 15.722 1.44053 15.6531C1.4128 15.5843 1.39906 15.5105 1.40009 15.4362C1.39322 15.3604 1.40292 15.284 1.42858 15.2125C1.45425 15.1409 1.49526 15.0759 1.54861 15.0221C1.60196 14.9683 1.66635 14.927 1.7373 14.9011C1.80825 14.8753 1.88395 14.8654 1.95909 14.8724H11.9521V1.12976H1.95909C1.88539 1.1308 1.81225 1.11693 1.74395 1.08896C1.67566 1.061 1.61361 1.01951 1.56149 0.96695C1.50937 0.914387 1.46826 0.851809 1.44053 0.782934C1.4128 0.71406 1.39906 0.640276 1.40009 0.565948C1.39322 0.490175 1.40292 0.413804 1.42858 0.342251C1.45425 0.270699 1.49526 0.205716 1.54861 0.151912C1.60196 0.0981085 1.66635 0.0568159 1.7373 0.0309338C1.80825 0.00505182 1.88395 -0.00477586 1.95909 0.00215716H12.4412C12.5149 0.00111347 12.5881 0.0149924 12.6564 0.0429564C12.7247 0.0709204 12.7868 0.112404 12.8389 0.164967C12.891 0.21753 12.9321 0.280087 12.9598 0.348961C12.9876 0.417836 13.0013 0.49162 13.0003 0.565948V15.3657C13.0003 15.7885 12.7906 16 12.4412 16Z" fill="black"/>
</svg>
