<svg width="15" height="18" viewBox="0 0 15 18" fill="none" xmlns="http://www.w3.org/2000/svg">
<path d="M7.13357 12.9718V12.9722L7.14655 12.9713C7.2542 12.9643 7.35936 12.9359 7.45581 12.8876C7.5523 12.8394 7.63811 12.7723 7.70828 12.6905L7.70831 12.6905L7.71105 12.6871L10.5996 9.16462C10.5998 9.16441 10.5999 9.1642 10.6001 9.16399C10.663 9.08839 10.7103 9.00121 10.7395 8.90743C10.7689 8.81329 10.7793 8.71435 10.7704 8.61627C10.7615 8.51823 10.7334 8.4228 10.6876 8.33545L10.5123 8.42746L10.6876 8.33545C10.6417 8.24811 10.5791 8.17074 10.5034 8.10771C10.4278 8.04465 10.3404 7.99708 10.2463 7.96775C10.1522 7.93843 10.0532 7.92795 9.95511 7.93687C9.85698 7.94579 9.76158 7.97393 9.67431 8.01974C9.58708 8.06553 9.50966 8.12807 9.44655 8.20379L9.44654 8.20379L9.44554 8.20502L6.55661 11.7281C6.55651 11.7282 6.55641 11.7284 6.5563 11.7285C6.42997 11.8815 6.36911 12.0782 6.38708 12.2758C6.40506 12.4736 6.50051 12.6563 6.65258 12.784L6.67065 12.7991L6.69175 12.8097C6.72123 12.8244 6.74763 12.8395 6.77595 12.8558C6.7782 12.8571 6.7805 12.8584 6.78284 12.8598C6.8081 12.8744 6.83775 12.8915 6.86793 12.9066C6.94042 12.9428 7.02407 12.9718 7.13357 12.9718Z" fill="#66AC27" stroke="#66AC27" stroke-width="0.4"/>
<path d="M10.3152 7.97579L10.24 8.1611L10.3152 7.97579C10.222 7.93794 10.1221 7.91911 10.0216 7.92032H1.5743C1.47253 7.91242 1.37024 7.92629 1.2742 7.96102C1.17504 7.99689 1.08505 8.05412 1.01052 8.12865C0.936021 8.20315 0.878709 8.29317 0.842821 8.39238C0.808139 8.48827 0.794326 8.59033 0.802107 8.69179C0.802089 8.78928 0.820916 8.88591 0.857631 8.97634C0.895633 9.06994 0.952001 9.15503 1.02351 9.22654C1.09499 9.29802 1.18008 9.35442 1.27371 9.39243C1.36687 9.43026 1.46663 9.44913 1.5672 9.44792H10.0145C10.1163 9.45583 10.2186 9.44197 10.3147 9.40722C10.4139 9.37134 10.5039 9.31408 10.5784 9.23957C10.6529 9.16507 10.7102 9.07505 10.7461 8.97584C10.7808 8.87996 10.7946 8.77789 10.7868 8.67644C10.7868 8.57895 10.768 8.48232 10.7313 8.39189C10.6933 8.29827 10.6369 8.2132 10.5654 8.14171C10.4939 8.07025 10.4088 8.01382 10.3152 7.97579Z" fill="#66AC27" stroke="#66AC27" stroke-width="0.4"/>
<path d="M10.0099 9.44693L10.0099 9.44735H10.0229C10.0259 9.44735 10.0291 9.44735 10.0323 9.44736C10.0961 9.44743 10.1912 9.44753 10.2805 9.42203C10.3769 9.39449 10.4694 9.33703 10.5336 9.2329C10.6671 9.1064 10.7504 8.93526 10.7672 8.7512C10.785 8.55458 10.7255 8.3587 10.6012 8.20525L10.6012 8.20525L10.6005 8.20435L7.71093 4.6806L7.71093 4.6806L7.70992 4.67938C7.5825 4.52648 7.39956 4.43048 7.20136 4.41246C7.00316 4.39444 6.80594 4.45588 6.65303 4.58329C6.50014 4.7107 6.40411 4.89364 6.38609 5.09185C6.36809 5.2898 6.4294 5.48676 6.55642 5.63955C6.5566 5.63977 6.55679 5.63998 6.55697 5.6402L9.44541 9.16273L9.44538 9.16276L9.44819 9.16605C9.51841 9.248 9.60434 9.31501 9.70075 9.36322C9.79716 9.41143 9.90223 9.43992 10.0099 9.44693Z" fill="#66AC27" stroke="#66AC27" stroke-width="0.4"/>
<path d="M2.97687 2.32976H12.8535V15.6724H2.98397C2.8822 15.6645 2.77991 15.6783 2.68387 15.7131C2.58471 15.7489 2.49472 15.8062 2.42019 15.8807C2.34569 15.9552 2.28838 16.0452 2.25249 16.1444C2.21781 16.2403 2.20399 16.3424 2.21178 16.4438C2.21176 16.5413 2.23058 16.638 2.2673 16.7284L2.4521 16.6534L2.2673 16.7284C2.3053 16.822 2.36167 16.9071 2.43317 16.9786C2.50466 17.0501 2.58975 17.1065 2.68337 17.1445C2.77655 17.1823 2.87633 17.2012 2.97693 17.2H13.5468C13.7635 17.2 13.9642 17.1338 14.1083 16.9765C14.25 16.822 14.3106 16.6081 14.3106 16.3657V1.5673C14.3119 1.46675 14.293 1.36694 14.2552 1.27372L14.0699 1.34896L14.2552 1.27372C14.2172 1.1801 14.1608 1.09504 14.0893 1.02355C14.0178 0.952063 13.9327 0.895662 13.8391 0.857648C13.7459 0.819813 13.6461 0.800947 13.5455 0.802157H2.98396C2.8822 0.794254 2.77991 0.808122 2.68387 0.84286C2.58471 0.878728 2.49472 0.935954 2.42018 1.01049C2.34569 1.08499 2.28838 1.17501 2.25249 1.27422C2.21781 1.3701 2.20399 1.47217 2.21178 1.57363C2.21176 1.67111 2.23058 1.76774 2.2673 1.85817C2.3053 1.95177 2.36167 2.03687 2.43318 2.10837C2.50466 2.17985 2.58975 2.23625 2.68337 2.27427C2.77653 2.31209 2.8763 2.33097 2.97687 2.32976Z" fill="#66AC27" stroke="#66AC27" stroke-width="0.4"/>
</svg>
