<svg width="246" height="60" viewBox="0 0 246 60" fill="none" xmlns="http://www.w3.org/2000/svg">
<path d="M0.919861 30V60H7.74211H14.5644L15.9161 57.6446L17.2519 55.305L11.4792 55.2573L5.69066 55.2255V30V4.77453L92.7896 4.7427L179.889 4.69496L181.209 2.41909C181.94 1.1618 182.528 0.0954895 182.528 0.0636597C182.528 0.031826 141.674 -3.8147e-06 91.7242 -3.8147e-06H0.919861V30Z" fill="white"/>
<path d="M199.353 2.38727L197.97 4.77454H204.681H211.392L212.775 2.38727L214.159 4.76837e-07H207.448H200.721L199.353 2.38727Z" fill="white"/>
<path d="M232.081 0.350132C231.652 1.06631 229.6 4.6313 229.6 4.69496C229.6 4.7427 232.208 4.77453 235.405 4.77453H241.209V30V55.2255L138.303 55.2573L35.3969 55.305L34.57 56.7374C34.1088 57.5172 33.5045 58.5836 33.2182 59.0769L32.7094 60H139.337H245.98V30V-3.8147e-06H239.142H232.304L232.081 0.350132Z" fill="white"/>
<path d="M20.0826 16.4085C14.7393 17.1883 11.5747 20.8011 12.2267 25.3687C12.4175 26.7852 12.8151 27.6446 13.6738 28.5836C15.0733 30.1114 16.6635 30.8276 21.5457 32.0849C24.7898 32.9125 25.7917 33.2785 26.6663 33.8992C27.541 34.5517 27.8431 35.1724 27.7636 36.2228C27.5887 38.3873 25.3782 39.4377 21.3866 39.2626C18.6355 39.1353 16.0751 38.3236 14.0396 36.9231C13.6261 36.6366 13.2763 36.4456 13.2604 36.4775C13.0059 36.748 11.5906 40.313 11.6701 40.4403C11.9086 40.8382 13.7374 41.8568 15.0415 42.3342C19.8759 44.1008 25.5849 43.9576 29.0676 41.9682C30.3398 41.2361 31.5325 39.9788 32.1368 38.7215C32.6298 37.6711 32.6457 37.5756 32.6457 35.5703C32.6457 33.6923 32.6139 33.4218 32.2482 32.7056C31.8029 31.7825 30.5307 30.4775 29.5288 29.8886C28.5428 29.3157 26.3801 28.5676 23.7561 27.9151C19.4942 26.8647 18.1743 26.2759 17.4428 25.0981C16.9975 24.3979 17.0929 23.1565 17.6654 22.2971C19.1603 20.0371 24.6149 19.8462 28.8609 21.9151C29.5447 22.2493 30.0854 22.4244 30.1649 22.3448C30.2444 22.2653 30.6261 21.4058 31.0236 20.4191C31.5643 19.0981 31.6916 18.6048 31.5643 18.4934C31.135 18.1432 29.3857 17.3634 28.352 17.0451C26.0302 16.313 22.5316 16.0584 20.0826 16.4085Z" fill="white"/>
<path d="M209.642 16.4085C204.299 17.1883 201.135 20.8011 201.787 25.3687C201.977 26.7852 202.375 27.6446 203.234 28.5836C204.633 30.1114 206.223 30.8276 211.106 32.0849C214.35 32.9125 215.352 33.2785 216.226 33.8992C217.101 34.5517 217.403 35.1724 217.323 36.2228C217.149 38.3873 214.938 39.4377 210.947 39.2626C208.195 39.1353 205.635 38.3236 203.599 36.9231C203.186 36.6366 202.836 36.4456 202.82 36.4775C202.566 36.748 201.15 40.313 201.23 40.4403C201.469 40.8382 203.297 41.8568 204.601 42.3342C209.436 44.1008 215.145 43.9576 218.628 41.9682C219.9 41.2361 221.092 39.9788 221.697 38.7215C222.19 37.6711 222.206 37.5756 222.206 35.5703C222.206 33.6923 222.174 33.4218 221.808 32.7056C221.363 31.7825 220.091 30.4775 219.089 29.8886C218.103 29.3157 215.94 28.5676 213.316 27.9151C209.054 26.8647 207.734 26.2759 207.003 25.0981C206.557 24.3979 206.653 23.1565 207.225 22.2971C208.72 20.0371 214.175 19.8462 218.421 21.9151C219.105 22.2493 219.645 22.4244 219.725 22.3448C219.804 22.2653 220.186 21.4058 220.584 20.4191C221.124 19.0981 221.251 18.6048 221.124 18.4934C220.695 18.1432 218.946 17.3634 217.912 17.0451C215.59 16.313 212.092 16.0584 209.642 16.4085Z" fill="white"/>
<path d="M40.3585 26.9284C37.7822 32.6419 35.0947 38.626 34.3791 40.2334L33.0591 43.13L35.7149 43.0981L38.3547 43.0504L39.6269 40.0584L40.9151 37.0822H47.4511H53.9871L55.307 40.1061L56.611 43.13H59.235C61.35 43.13 61.843 43.0822 61.7953 42.9072C61.7635 42.7958 59.1077 36.8117 55.8636 29.634L49.9796 16.5676L47.4988 16.5517H45.018L40.3585 26.9284ZM49.8206 27.2944C51.1087 30.2706 52.1901 32.8011 52.2378 32.8966C52.3014 33.0557 51.2836 33.1034 47.467 33.1034H42.6167L45.0339 27.4695C46.3538 24.366 47.4511 21.8515 47.467 21.8674C47.467 21.8674 48.5324 24.3183 49.8206 27.2944Z" fill="white"/>
<path d="M64.3715 29.8408V43.13H66.8364H69.3014L69.3332 34.2971L69.3809 25.4483L76.5371 34.2812L83.6933 43.1141H85.8083L87.9075 43.13V29.8408V16.5517H85.4426H82.9776L82.9458 25.4164L82.8981 34.2653L75.6942 25.4164L68.4903 16.5517H66.423H64.3715V29.8408Z" fill="white"/>
<path d="M93.9505 29.8408V43.13H100.916C107.086 43.13 108.024 43.0981 109.297 42.8276C114.099 41.8249 117.725 38.9284 119.188 34.8859C120.492 31.321 120.285 27.0398 118.663 23.7294C118.011 22.4244 117.677 21.9788 116.389 20.6737C115.037 19.3369 114.656 19.0504 113.193 18.3183C110.06 16.7745 108.358 16.5517 99.9935 16.5517H93.9505V29.8408ZM108.342 21.2467C111.698 22.1857 113.972 24.4775 114.719 27.6286C115.228 29.7772 114.863 32.4987 113.829 34.5358C113.304 35.5703 111.682 37.1141 110.505 37.7029C108.581 38.6737 107.579 38.8329 103.063 38.8329H99.0394V29.8249V20.817L103.222 20.8966C106.482 20.9602 107.595 21.0239 108.342 21.2467Z" fill="white"/>
<path d="M124.166 29.8408V43.13H133.628H143.09V40.9814V38.8329H136.172H129.254V27.6923V16.5517H126.71H124.166V29.8408Z" fill="white"/>
<path d="M151.359 26.9284C148.783 32.6419 146.095 38.626 145.38 40.2334L144.06 43.13L146.716 43.0981L149.355 43.0504L150.628 40.0584L151.916 37.0822H158.452H164.988L166.308 40.1061L167.612 43.13H170.236C172.351 43.13 172.844 43.0822 172.796 42.9072C172.764 42.7958 170.108 36.8117 166.864 29.634L160.98 16.5676L158.499 16.5517H156.019L151.359 26.9284ZM160.821 27.2944C162.109 30.2706 163.191 32.8011 163.238 32.8966C163.302 33.0557 162.284 33.1034 158.468 33.1034H153.617L156.035 27.4695C157.354 24.366 158.452 21.8515 158.468 21.8674C158.468 21.8674 159.533 24.3183 160.821 27.2944Z" fill="white"/>
<path d="M175.372 29.8568V43.1459L183.769 43.0981C191.895 43.0345 192.181 43.0186 193.31 42.6844C195.887 41.9045 197.572 40.6313 198.399 38.8647C198.797 38.0212 198.829 37.7984 198.829 35.8886C198.829 33.8833 198.813 33.7878 198.32 32.7851C197.7 31.5279 196.761 30.5729 195.441 29.8727L194.44 29.3316L195.092 28.8859C195.457 28.6313 196.03 28.0424 196.364 27.565C197.286 26.2918 197.556 25.3528 197.556 23.4748C197.556 22.0743 197.493 21.7719 197.111 20.9284C195.998 18.5252 193.517 17.0928 189.86 16.7268C188.953 16.6313 185.327 16.5517 181.797 16.5517H175.372V29.8568ZM188.635 20.6897C190.559 20.9761 191.704 21.6446 192.245 22.8382C193.151 24.8117 191.879 27.008 189.526 27.5172C189.064 27.6127 186.965 27.6923 184.596 27.6923H180.461V24.1114V20.5305H184.007C185.947 20.5305 188.031 20.6101 188.635 20.6897ZM191.164 32.069C192.277 32.4191 193.406 33.3581 193.676 34.1698C194.185 35.7135 193.692 37.3846 192.468 38.2281C191.291 39.0398 190.416 39.1512 185.2 39.1512H180.461V35.3952V31.6393L185.359 31.7188C189.494 31.7666 190.384 31.8302 191.164 32.069Z" fill="white"/>
<path d="M229.41 34.4244C227.883 34.8541 226.658 36.0318 226.261 37.4642C226.006 38.4191 226.118 40.1857 226.499 40.9814C227.851 43.7825 231.588 44.435 233.862 42.2865C235.802 40.4562 235.707 37.0822 233.671 35.2838C232.717 34.4403 230.761 34.0584 229.41 34.4244Z" fill="white"/>
</svg>
