<svg width="19" height="20" viewBox="0 0 19 20" fill="none" xmlns="http://www.w3.org/2000/svg">
<path d="M17.82 17.7414L13.481 13.4024C14.7168 11.8933 15.3251 9.96684 15.1801 8.02171C15.035 6.07658 14.1477 4.26166 12.7018 2.95253C11.2558 1.64341 9.36194 0.940283 7.41201 0.98867C5.46208 1.03706 3.60539 1.83325 2.22615 3.21248C0.84692 4.59171 0.0507282 6.44841 0.00234145 8.39834C-0.0460453 10.3483 0.657077 12.2422 1.9662 13.6881C3.27533 15.1341 5.09025 16.0214 7.03538 16.1664C8.98051 16.3114 10.907 15.7031 12.416 14.4673L16.7551 18.8032C16.8968 18.9394 17.0862 19.0148 17.2828 19.013C17.4794 19.0112 17.6675 18.9326 17.8067 18.7938C17.946 18.6551 18.0254 18.4673 18.0279 18.2707C18.0303 18.0741 17.9557 17.8844 17.82 17.7422V17.7414ZM7.59752 14.6729C6.39213 14.6726 5.2139 14.3149 4.21183 13.6449C3.20975 12.975 2.42884 12.023 1.96784 10.9092C1.50685 9.79544 1.38647 8.57 1.62194 7.38783C1.8574 6.20566 2.43813 5.11986 3.29069 4.26774C4.14325 3.41562 5.22935 2.83544 6.41164 2.60059C7.59393 2.36573 8.81931 2.48674 9.93283 2.94831C11.0463 3.40988 11.998 4.19128 12.6674 5.1937C13.3368 6.19612 13.694 7.37454 13.6937 8.57993C13.6916 10.1957 13.0487 11.7446 11.9059 12.8869C10.7632 14.0291 9.21404 14.6715 7.59831 14.6729H7.59752Z" fill="#66AC27"/>
</svg>
