<svg width="70" height="70" viewBox="0 0 70 70" fill="none" xmlns="http://www.w3.org/2000/svg">
<path d="M66.8427 11.4844H52.5C51.9334 11.4844 51.4746 11.9431 51.4746 12.5098C51.4746 13.0764 51.9334 13.5352 52.5 13.5352H66.8427C67.4531 13.5352 67.9492 14.0313 67.9492 14.6417V54.1278C67.9492 54.7382 67.4531 55.2344 66.8427 55.2344H3.15735C2.54692 55.2344 2.05078 54.7382 2.05078 54.1278V14.6417C2.05078 14.0313 2.54692 13.5352 3.15735 13.5352H25.686V15.5859H5.12695C4.56032 15.5859 4.10156 16.0447 4.10156 16.6113V43.7046C4.10156 44.2707 4.56032 44.73 5.12695 44.73C5.69359 44.73 6.15234 44.2707 6.15234 43.7046V17.6367H25.686V23.1375L21.2961 25.2348C20.9457 25.4025 20.7129 25.7645 20.7129 26.1603V42.8827C20.7129 43.2779 20.9399 43.6378 21.2961 43.8082L34.5578 50.1443C34.8451 50.2794 35.1693 50.2724 35.4422 50.1443L42.8976 46.5821C43.4087 46.338 43.625 45.7255 43.381 45.2149C43.1369 44.7038 42.5238 44.4875 42.0132 44.7316L36.0254 47.5925V33.1425L47.2363 27.7865V42.2365L45.7132 42.9639C45.2021 43.2079 44.9858 43.8205 45.2299 44.3311C45.4739 44.8421 46.0865 45.0584 46.5971 44.8144L48.7039 43.8082C49.0601 43.6378 49.2871 43.2779 49.2871 42.8827V26.1603C49.2871 25.7693 49.0596 25.4051 48.7039 25.2348L44.314 23.1375V17.6367H63.8477V51.1328H6.15234V48.0796C6.15234 47.513 5.69359 47.0542 5.12695 47.0542C4.56032 47.0542 4.10156 47.513 4.10156 48.0796V52.1582C4.10156 52.7248 4.56032 53.1836 5.12695 53.1836H64.873C65.4397 53.1836 65.8984 52.7248 65.8984 52.1582V16.6113C65.8984 16.0447 65.4397 15.5859 64.873 15.5859H44.314V13.5352H48.125C48.6916 13.5352 49.1504 13.0764 49.1504 12.5098C49.1504 11.9431 48.6916 11.4844 48.125 11.4844H44.314V9.43359H53.5083C54.0749 9.43359 54.5337 8.97484 54.5337 8.4082V5.9761C55.7273 5.5526 56.5845 4.41292 56.5845 3.07617C56.5845 1.38 55.2045 0 53.5083 0C51.8121 0 50.4321 1.38 50.4321 3.07617C50.4321 4.41292 51.2893 5.5526 52.4829 5.9761V7.38281H43.2886C42.7219 7.38281 42.2632 7.84157 42.2632 8.4082V11.4844H36.0254V5.9761C37.219 5.5526 38.0762 4.41292 38.0762 3.07617C38.0762 1.38 36.6962 0 35 0C33.3038 0 31.9238 1.38 31.9238 3.07617C31.9238 4.41292 32.781 5.5526 33.9746 5.9761V11.4844H27.7368V8.4082C27.7368 7.84157 27.2781 7.38281 26.7114 7.38281H17.5171V5.9761C18.7107 5.5526 19.5679 4.41292 19.5679 3.07617C19.5679 1.38 18.1879 0 16.4917 0C14.7955 0 13.4155 1.38 13.4155 3.07617C13.4155 4.41292 14.2727 5.5526 15.4663 5.9761V8.4082C15.4663 8.97484 15.9251 9.43359 16.4917 9.43359H25.686V11.4844H3.15735C1.41632 11.4844 0 12.9007 0 14.6417V54.1278C0 55.8688 1.41632 57.2852 3.15735 57.2852H25.388C24.9912 61.0465 22.5041 63.2431 21.7201 63.8477H17.3633C15.6671 63.8477 14.2871 65.2277 14.2871 66.9238C14.2871 68.62 15.6671 70 17.3633 70H52.6367C54.3329 70 55.7129 68.62 55.7129 66.9238C55.7129 65.2277 54.3329 63.8477 52.6367 63.8477H48.2825C47.5087 63.2452 45.013 61.0289 44.613 57.2852H66.8427C68.5837 57.2852 70 55.8688 70 54.1278V14.6417C70 12.9007 68.5837 11.4844 66.8427 11.4844ZM53.5083 2.05078C54.0739 2.05078 54.5337 2.5106 54.5337 3.07617C54.5337 3.64174 54.0739 4.10156 53.5083 4.10156C52.9427 4.10156 52.4829 3.64174 52.4829 3.07617C52.4829 2.5106 52.9427 2.05078 53.5083 2.05078ZM35 2.05078C35.5656 2.05078 36.0254 2.5106 36.0254 3.07617C36.0254 3.64174 35.5656 4.10156 35 4.10156C34.4344 4.10156 33.9746 3.64174 33.9746 3.07617C33.9746 2.5106 34.4344 2.05078 35 2.05078ZM16.4917 2.05078C17.0573 2.05078 17.5171 2.5106 17.5171 3.07617C17.5171 3.64174 17.0573 4.10156 16.4917 4.10156C15.9261 4.10156 15.4663 3.64174 15.4663 3.07617C15.4663 2.5106 15.9261 2.05078 16.4917 2.05078ZM27.7368 17.6367H33.9746V19.1775L27.7368 22.1581V17.6367ZM45.883 26.1603L35 31.3593L24.117 26.1603L35 20.9607L45.883 26.1603ZM22.7637 27.7865L33.9746 33.1425V47.5925L22.7637 42.2365V27.7865ZM42.2632 22.1581L36.0254 19.1775V17.6367H42.2632V22.1581ZM42.2632 13.5352V15.5859H36.0254V13.5352H42.2632ZM33.9746 13.5352V15.5859H27.7368V13.5352H33.9746ZM53.6621 66.9238C53.6621 67.4894 53.2023 67.9492 52.6367 67.9492H17.3633C16.7977 67.9492 16.3379 67.4894 16.3379 66.9238C16.3379 66.3583 16.7977 65.8984 17.3633 65.8984H52.6367C53.2023 65.8984 53.6621 66.3583 53.6621 66.9238ZM45.3415 63.8477H24.6585C25.8607 62.4436 27.1942 60.2556 27.45 57.2852H42.55C42.8058 60.2556 44.1393 62.4436 45.3415 63.8477Z" fill="#020217"/>
</svg>
