<svg width="70" height="70" viewBox="0 0 70 70" fill="none" xmlns="http://www.w3.org/2000/svg">
<path d="M48.284 47.2321C48.0393 47.2324 47.7957 47.2006 47.5594 47.1375L9.5087 36.7699C8.80713 36.5785 8.21027 36.1164 7.84931 35.4851C7.48834 34.8538 7.3928 34.105 7.5837 33.4033L8.87775 28.6546C8.9441 28.4131 9.10357 28.2077 9.32117 28.0835C9.53876 27.9594 9.79671 27.9266 10.0384 27.9925L51.5541 39.2984C51.7957 39.3648 52.001 39.5242 52.1252 39.7418C52.2493 39.9594 52.2821 40.2174 52.2163 40.4591L50.9222 45.2087C50.7644 45.7889 50.4204 46.3012 49.943 46.6667C49.4657 47.0323 48.8814 47.2309 48.2802 47.2321H48.284ZM10.4546 30.0641L9.40843 33.9008C9.35045 34.1179 9.38067 34.3492 9.49248 34.5441C9.60429 34.739 9.78864 34.8818 10.0053 34.9414L48.0541 45.3108C48.2712 45.3688 48.5024 45.3386 48.6973 45.2268C48.8923 45.115 49.0351 44.9306 49.0946 44.7139L50.1408 40.8772L10.4546 30.0641Z" fill="#020217"/>
<path d="M57.1909 46.8073C56.9441 46.8079 56.6983 46.7761 56.4597 46.7127L50.0102 44.9882C49.89 44.956 49.7773 44.9003 49.6787 44.8244C49.58 44.7486 49.4972 44.6539 49.4352 44.546C49.3732 44.4381 49.333 44.319 49.3171 44.1956C49.3012 44.0721 49.3098 43.9467 49.3424 43.8266L50.3952 39.9586C50.4616 39.7168 50.6212 39.5113 50.839 39.3871C51.0568 39.263 51.315 39.2304 51.5569 39.2965L52.5142 39.5566C52.7313 39.6146 52.9625 39.5844 53.1574 39.4725C53.3523 39.3607 53.4951 39.1764 53.5547 38.9597L56.5959 27.8013C56.6623 27.561 56.8209 27.3567 57.0372 27.2327C57.2535 27.1087 57.51 27.0751 57.7509 27.1392L61.4865 28.1248C61.8495 28.2209 62.1899 28.3879 62.488 28.6162C62.7862 28.8445 63.0362 29.1295 63.2237 29.4549C63.4111 29.7802 63.5324 30.1395 63.5804 30.5119C63.6283 30.8843 63.6021 31.2626 63.5032 31.6248L59.938 44.7101C59.7727 45.3121 59.4145 45.8433 58.9183 46.2222C58.422 46.601 57.8152 46.8065 57.1909 46.8073ZM51.4207 43.4019L56.9459 44.8832C57.1892 44.9471 57.4479 44.9126 57.6659 44.7873C57.884 44.662 58.044 44.4558 58.1113 44.2135L61.6757 31.1216C61.7089 31.0004 61.7178 30.8737 61.7018 30.749C61.6858 30.6243 61.6452 30.504 61.5824 30.3951C61.5196 30.2862 61.4358 30.1908 61.3359 30.1145C61.2359 30.0382 61.1219 29.9824 61.0003 29.9505L58.1757 29.2051L55.3832 39.4535C55.1918 40.155 54.7297 40.7519 54.0984 41.1129C53.4671 41.4738 52.7183 41.5694 52.0166 41.3785L51.9721 41.3662L51.4207 43.4019Z" fill="#020217"/>
<path d="M31.0743 51.2911C30.8906 51.2908 30.711 51.2376 30.5568 51.1378C29.9587 50.7588 29.2652 50.5575 28.5571 50.5575C27.849 50.5575 27.1555 50.7588 26.5574 51.1378C26.4146 51.2311 26.2493 51.2841 26.0789 51.2911C25.9085 51.2981 25.7393 51.2589 25.5894 51.1777C25.4394 51.0965 25.3142 50.9762 25.227 50.8296C25.1398 50.6831 25.0938 50.5157 25.094 50.3451V40.2869C25.0941 40.1415 25.1277 39.9981 25.1923 39.8678C25.2568 39.7375 25.3504 39.6239 25.466 39.5357C25.5816 39.4475 25.7159 39.3871 25.8586 39.3592C26.0013 39.3314 26.1485 39.3367 26.2887 39.375L31.3221 40.7438C31.5225 40.7982 31.6995 40.917 31.8257 41.082C31.9518 41.247 32.0202 41.4489 32.0202 41.6566V50.3451C32.0202 50.596 31.9205 50.8366 31.7431 51.014C31.5657 51.1914 31.3251 51.2911 31.0743 51.2911ZM28.5562 48.6547C29.0882 48.6541 29.6176 48.7296 30.1283 48.8789V42.3784L26.9859 41.527V48.8817C27.4958 48.7315 28.0246 48.655 28.5562 48.6547Z" fill="#020217"/>
<path d="M24.3591 57.2117H12.0542C11.8033 57.2117 11.5627 57.1121 11.3853 56.9347C11.2079 56.7573 11.1083 56.5167 11.1083 56.2658V52.2379C11.1083 51.9871 11.2079 51.7465 11.3853 51.5691C11.5627 51.3917 11.8033 51.292 12.0542 51.292H24.3591C24.61 51.292 24.8506 51.3917 25.028 51.5691C25.2054 51.7465 25.305 51.9871 25.305 52.2379C25.305 52.4888 25.2054 52.7294 25.028 52.9068C24.8506 53.0842 24.61 53.1839 24.3591 53.1839H13.0002V55.3198H24.3591C24.61 55.3198 24.8506 55.4195 25.028 55.5969C25.2054 55.7743 25.305 56.0149 25.305 56.2658C25.305 56.5167 25.2054 56.7573 25.028 56.9347C24.8506 57.1121 24.61 57.2117 24.3591 57.2117Z" fill="#020217"/>
<path d="M7.34243 64.6894C7.09155 64.6894 6.85094 64.5898 6.67355 64.4124C6.49615 64.235 6.39648 63.9944 6.39648 63.7435V44.7706C6.39648 44.5198 6.49615 44.2792 6.67355 44.1018C6.85094 43.9244 7.09155 43.8247 7.34243 43.8247C8.08701 43.8218 8.82476 43.9667 9.51292 44.251C10.2011 44.5353 10.826 44.9534 11.3513 45.481C12.414 46.5487 13.0099 47.9941 13.0086 49.5004V59.0137C13.0086 60.5174 12.412 61.9596 11.3496 63.0237C10.2873 64.0878 8.84607 64.6869 7.34243 64.6894ZM8.28838 45.8348V62.6774C9.09782 62.4645 9.81401 61.9896 10.3252 61.3268C10.8363 60.6641 11.1137 59.8507 11.1139 59.0137V49.5004C11.1143 48.4937 10.716 47.5278 10.0062 46.8139C9.53208 46.339 8.93862 46.0007 8.28838 45.8348Z" fill="#020217"/>
<path d="M7.34243 68.1081C7.09155 68.1081 6.85094 68.0084 6.67355 67.831C6.49615 67.6536 6.39648 67.413 6.39648 67.1621V41.352C6.39648 41.1011 6.49615 40.8605 6.67355 40.6831C6.85094 40.5057 7.09155 40.4061 7.34243 40.4061C7.59331 40.4061 7.83392 40.5057 8.01132 40.6831C8.18872 40.8605 8.28838 41.1011 8.28838 41.352V67.1621C8.28838 67.413 8.18872 67.6536 8.01132 67.831C7.83392 68.0084 7.59331 68.1081 7.34243 68.1081Z" fill="#020217"/>
<path d="M42.7066 7.13999C42.5768 7.14016 42.4483 7.11344 42.3293 7.06151C42.2103 7.00957 42.1033 6.93355 42.0152 6.83823C40.2773 4.97657 37.8721 3.88019 35.327 3.78957C32.7819 3.69896 30.3048 4.6215 28.4389 6.35485C28.2553 6.52595 28.0112 6.61709 27.7604 6.60822C27.5095 6.59935 27.2725 6.4912 27.1014 6.30756C26.9303 6.12391 26.8391 5.87982 26.848 5.62898C26.8569 5.37813 26.965 5.14109 27.1487 4.96999C29.3818 2.89515 32.3468 1.79086 35.3931 1.8994C38.4394 2.00793 41.3183 3.32041 43.3981 5.54891C43.5238 5.68372 43.6074 5.85232 43.6386 6.034C43.6698 6.21567 43.6472 6.4025 43.5737 6.57152C43.5001 6.74054 43.3788 6.88438 43.2246 6.98538C43.0704 7.08637 42.89 7.14011 42.7057 7.13999H42.7066Z" fill="#020217"/>
<path d="M39.7837 9.86242C39.6538 9.8625 39.5253 9.83584 39.4061 9.78409C39.287 9.73233 39.1798 9.6566 39.0912 9.56161C38.0766 8.47395 36.6719 7.83322 35.1855 7.78002C33.699 7.72682 32.2521 8.26549 31.1623 9.27782C30.9773 9.43873 30.737 9.5215 30.4921 9.50867C30.2472 9.49585 30.0169 9.38843 29.8497 9.20907C29.6825 9.02971 29.5914 8.79243 29.5958 8.54725C29.6001 8.30208 29.6995 8.06817 29.873 7.89485C31.3302 6.54138 33.2648 5.82112 35.2523 5.89205C37.2399 5.96299 39.1181 6.81932 40.4752 8.27323C40.6005 8.40802 40.6838 8.57645 40.7149 8.75788C40.7459 8.93931 40.7233 9.12585 40.6499 9.29465C40.5765 9.46345 40.4555 9.60716 40.3016 9.70818C40.1477 9.8092 39.9677 9.86313 39.7837 9.86336V9.86242Z" fill="#020217"/>
<path d="M35.0634 19.966C34.8125 19.966 34.5719 19.8664 34.3945 19.689C34.2171 19.5116 34.1174 19.271 34.1174 19.0201V14.2431C34.1174 13.9922 34.2171 13.7516 34.3945 13.5742C34.5719 13.3968 34.8125 13.2971 35.0634 13.2971C35.3143 13.2971 35.5549 13.3968 35.7323 13.5742C35.9097 13.7516 36.0093 13.9922 36.0093 14.2431V19.0201C36.0093 19.271 35.9097 19.5116 35.7323 19.689C35.5549 19.8664 35.3143 19.966 35.0634 19.966Z" fill="#020217"/>
<path d="M35.0634 15.1871C34.383 15.1864 33.724 14.9498 33.1985 14.5177C32.673 14.0856 32.3135 13.4846 32.1815 12.8172C32.0494 12.1498 32.1528 11.4572 32.474 10.8574C32.7953 10.2577 33.3146 9.78792 33.9434 9.52811C34.5722 9.2683 35.2716 9.23455 35.9225 9.43259C36.5734 9.63064 37.1355 10.0482 37.5131 10.6143C37.8906 11.1803 38.0602 11.8597 37.993 12.5367C37.9258 13.2137 37.6259 13.8465 37.1445 14.3273C36.8714 14.6006 36.5469 14.8173 36.1898 14.9649C35.8326 15.1125 35.4498 15.188 35.0634 15.1871ZM35.0634 11.1962C34.8205 11.1964 34.5852 11.2809 34.3976 11.4352C34.2101 11.5894 34.0817 11.804 34.0346 12.0422C33.9874 12.2805 34.0243 12.5277 34.1389 12.7418C34.2536 12.9559 34.4389 13.1237 34.6633 13.2165C34.8878 13.3093 35.1375 13.3214 35.3699 13.2508C35.6022 13.1802 35.803 13.0312 35.9378 12.8292C36.0727 12.6272 36.1333 12.3847 36.1095 12.143C36.0856 11.9013 35.9787 11.6753 35.8069 11.5036C35.7094 11.4058 35.5935 11.3283 35.4659 11.2756C35.3383 11.2228 35.2015 11.1958 35.0634 11.1962Z" fill="#020217"/>
<path d="M28.5524 59.8594C27.4442 59.8596 26.3609 59.5312 25.4394 58.9156C24.5179 58.3001 23.7996 57.4251 23.3754 56.4014C22.9512 55.3776 22.8401 54.251 23.0562 53.1641C23.2722 52.0772 23.8058 51.0788 24.5893 50.2951C25.3728 49.5115 26.3712 48.9777 27.458 48.7615C28.5449 48.5452 29.6715 48.6561 30.6953 49.0802C31.7192 49.5042 32.5943 50.2223 33.21 51.1437C33.8257 52.0651 34.1543 53.1484 34.1543 54.2566C34.1528 55.7419 33.5621 57.166 32.5119 58.2164C31.4617 59.2668 30.0377 59.8577 28.5524 59.8594ZM28.5524 50.5466C27.8184 50.5464 27.1008 50.7639 26.4903 51.1716C25.8799 51.5793 25.4042 52.1589 25.1232 52.837C24.8422 53.5151 24.7686 54.2613 24.9118 54.9813C25.0549 55.7012 25.4084 56.3625 25.9274 56.8816C26.4465 57.4006 27.1078 57.7541 27.8277 57.8972C28.5476 58.0404 29.2939 57.9668 29.972 57.6858C30.6501 57.4048 31.2297 56.929 31.6374 56.3186C32.0451 55.7082 32.2626 54.9906 32.2624 54.2566C32.2611 53.273 31.8699 52.3301 31.1744 51.6346C30.4789 50.9391 29.536 50.5478 28.5524 50.5466Z" fill="#020217"/>
<path d="M28.5525 56.946C28.0198 56.9462 27.499 56.7884 27.056 56.4926C26.613 56.1967 26.2677 55.7762 26.0637 55.2841C25.8597 54.792 25.8062 54.2505 25.91 53.728C26.0138 53.2056 26.2703 52.7256 26.6469 52.3489C27.0235 51.9721 27.5033 51.7156 28.0258 51.6116C28.5482 51.5076 29.0897 51.5609 29.5819 51.7647C30.0741 51.9685 30.4947 52.3137 30.7907 52.7566C31.0866 53.1994 31.2446 53.7202 31.2446 54.2529C31.2439 54.9667 30.96 55.6511 30.4553 56.156C29.9506 56.6609 29.2663 56.945 28.5525 56.946ZM28.5525 53.4526C28.3939 53.4524 28.2389 53.4993 28.107 53.5872C27.9751 53.6752 27.8722 53.8003 27.8115 53.9468C27.7507 54.0932 27.7348 54.2544 27.7656 54.4099C27.7965 54.5654 27.8729 54.7082 27.985 54.8203C28.0971 54.9325 28.2399 55.0088 28.3954 55.0397C28.5509 55.0706 28.7121 55.0546 28.8586 54.9938C29.005 54.9331 29.1301 54.8302 29.2181 54.6983C29.3061 54.5664 29.3529 54.4114 29.3527 54.2529C29.3512 54.0414 29.2663 53.8391 29.1165 53.69C28.9666 53.5408 28.7639 53.4569 28.5525 53.4564V53.4526Z" fill="#020217"/>
<path d="M52.7355 41.475C52.4927 41.4754 52.251 41.4436 52.0166 41.3804L8.51346 29.5286C7.81211 29.3372 7.21542 28.8752 6.85448 28.2442C6.49353 27.6131 6.39785 26.8645 6.58846 26.163L9.89927 14.0255C10.0907 13.324 10.5528 12.7271 11.1841 12.3662C11.8154 12.0052 12.5642 11.9096 13.2659 12.1005L56.7699 23.9504C57.4713 24.1418 58.068 24.6038 58.4289 25.2349C58.7899 25.866 58.8855 26.6145 58.6949 27.3161L55.3832 39.4535C55.2238 40.0337 54.8785 40.5456 54.4003 40.9108C53.922 41.2759 53.3372 41.4741 52.7355 41.475ZM12.5366 13.8959C12.3504 13.8966 12.1695 13.9583 12.0217 14.0716C11.8739 14.1849 11.7674 14.3435 11.7183 14.5231L8.41224 26.6596C8.35424 26.8766 8.38432 27.1077 8.49595 27.3026C8.60757 27.4975 8.79169 27.6404 9.00819 27.7001L52.5141 39.5528C52.7312 39.6108 52.9625 39.5806 53.1574 39.4688C53.3523 39.357 53.4951 39.1726 53.5547 38.9559L56.8598 26.8195C56.9178 26.6023 56.8876 26.3711 56.7758 26.1762C56.6639 25.9813 56.4796 25.8385 56.2629 25.7789L12.7617 13.9262C12.6883 13.9064 12.6126 13.8962 12.5366 13.8959Z" fill="#020217"/>
</svg>
